solid Mesh
  facet normal -1.000000 -0.000000 -0.000000
    outer loop
      vertex -165.000000 -4000.000000 -600.000000
      vertex -165.000000 -4000.000000 -1450.000000
      vertex -165.000000 -4300.000000 -600.000000
    endloop
  endfacet
  facet normal -1.000000 0.000000 0.000000
    outer loop
      vertex -165.000000 -4300.000000 -600.000000
      vertex -165.000000 -4000.000000 -1450.000000
      vertex -165.000000 -4300.000000 -1450.000000
    endloop
  endfacet
  facet normal 0.000000 0.000000 -1.000000
    outer loop
      vertex -165.000000 -4000.000000 -1450.000000
      vertex 165.000000 -4000.000000 -1450.000000
      vertex -165.000000 -4300.000000 -1450.000000
    endloop
  endfacet
  facet normal 0.000000 0.000000 -1.000000
    outer loop
      vertex -165.000000 -4300.000000 -1450.000000
      vertex 165.000000 -4000.000000 -1450.000000
      vertex 165.000000 -4300.000000 -1450.000000
    endloop
  endfacet
  facet normal 1.000000 0.000000 -0.000000
    outer loop
      vertex 165.000000 -4000.000000 -1450.000000
      vertex 165.000000 -4000.000000 -600.000000
      vertex 165.000000 -4300.000000 -1450.000000
    endloop
  endfacet
  facet normal 1.000000 0.000000 0.000000
    outer loop
      vertex 165.000000 -4300.000000 -1450.000000
      vertex 165.000000 -4000.000000 -600.000000
      vertex 165.000000 -4300.000000 -600.000000
    endloop
  endfacet
  facet normal 0.000000 0.000000 -1.000000
    outer loop
      vertex 165.000000 -4000.000000 -600.000000
      vertex 185.000000 -4000.000000 -600.000000
      vertex 165.000000 -4300.000000 -600.000000
    endloop
  endfacet
  facet normal 0.000000 0.000000 -1.000000
    outer loop
      vertex 165.000000 -4300.000000 -600.000000
      vertex 185.000000 -4000.000000 -600.000000
      vertex 185.000000 -4300.000000 -600.000000
    endloop
  endfacet
  facet normal -1.000000 -0.000000 -0.000000
    outer loop
      vertex 185.000000 -4000.000000 -600.000000
      vertex 185.000000 -4000.000000 -820.000000
      vertex 185.000000 -4300.000000 -600.000000
    endloop
  endfacet
  facet normal -1.000000 0.000000 0.000000
    outer loop
      vertex 185.000000 -4300.000000 -600.000000
      vertex 185.000000 -4000.000000 -820.000000
      vertex 185.000000 -4300.000000 -820.000000
    endloop
  endfacet
  facet normal 0.000000 0.000000 -1.000000
    outer loop
      vertex 185.000000 -4000.000000 -820.000000
      vertex 300.000000 -4000.000000 -820.000000
      vertex 185.000000 -4300.000000 -820.000000
    endloop
  endfacet
  facet normal 0.000000 0.000000 -1.000000
    outer loop
      vertex 185.000000 -4300.000000 -820.000000
      vertex 300.000000 -4000.000000 -820.000000
      vertex 300.000000 -4300.000000 -820.000000
    endloop
  endfacet
  facet normal 1.000000 0.000000 -0.000000
    outer loop
      vertex 300.000000 -4000.000000 -820.000000
      vertex 300.000000 -4000.000000 80.000000
      vertex 300.000000 -4300.000000 -820.000000
    endloop
  endfacet
  facet normal 1.000000 0.000000 0.000000
    outer loop
      vertex 300.000000 -4300.000000 -820.000000
      vertex 300.000000 -4000.000000 80.000000
      vertex 300.000000 -4300.000000 80.000000
    endloop
  endfacet
  facet normal 0.000000 0.000000 1.000000
    outer loop
      vertex 300.000000 -4000.000000 80.000000
      vertex 70.000000 -4000.000000 80.000000
      vertex 300.000000 -4300.000000 80.000000
    endloop
  endfacet
  facet normal 0.000000 0.000000 1.000000
    outer loop
      vertex 300.000000 -4300.000000 80.000000
      vertex 70.000000 -4000.000000 80.000000
      vertex 70.000000 -4300.000000 80.000000
    endloop
  endfacet
  facet normal 1.000000 0.000000 -0.000000
    outer loop
      vertex 70.000000 -4000.000000 80.000000
      vertex 70.000000 -4000.000000 130.000000
      vertex 70.000000 -4300.000000 80.000000
    endloop
  endfacet
  facet normal 1.000000 0.000000 0.000000
    outer loop
      vertex 70.000000 -4300.000000 80.000000
      vertex 70.000000 -4000.000000 130.000000
      vertex 70.000000 -4300.000000 130.000000
    endloop
  endfacet
  facet normal 0.000000 0.000000 -1.000000
    outer loop
      vertex 70.000000 -4000.000000 130.000000
      vertex 125.000000 -4000.000000 130.000000
      vertex 70.000000 -4300.000000 130.000000
    endloop
  endfacet
  facet normal 0.000000 0.000000 -1.000000
    outer loop
      vertex 70.000000 -4300.000000 130.000000
      vertex 125.000000 -4000.000000 130.000000
      vertex 125.000000 -4300.000000 130.000000
    endloop
  endfacet
  facet normal 1.000000 0.000000 -0.000000
    outer loop
      vertex 125.000000 -4000.000000 130.000000
      vertex 125.000000 -4000.000000 410.000000
      vertex 125.000000 -4300.000000 130.000000
    endloop
  endfacet
  facet normal 1.000000 0.000000 0.000000
    outer loop
      vertex 125.000000 -4300.000000 130.000000
      vertex 125.000000 -4000.000000 410.000000
      vertex 125.000000 -4300.000000 410.000000
    endloop
  endfacet
  facet normal 0.000000 -0.000000 1.000000
    outer loop
      vertex 125.000000 -4300.000000 410.000000
      vertex 125.000000 -4000.000000 410.000000
      vertex -125.000000 -4300.000000 410.000000
    endloop
  endfacet
  facet normal 0.000000 0.000000 1.000000
    outer loop
      vertex 125.000000 -4000.000000 410.000000
      vertex -125.000000 -4000.000000 410.000000
      vertex -125.000000 -4300.000000 410.000000
    endloop
  endfacet
  facet normal -1.000000 -0.000000 -0.000000
    outer loop
      vertex -125.000000 -4000.000000 410.000000
      vertex -125.000000 -4000.000000 130.000000
      vertex -125.000000 -4300.000000 410.000000
    endloop
  endfacet
  facet normal -1.000000 0.000000 0.000000
    outer loop
      vertex -125.000000 -4300.000000 410.000000
      vertex -125.000000 -4000.000000 130.000000
      vertex -125.000000 -4300.000000 130.000000
    endloop
  endfacet
  facet normal 0.000000 0.000000 -1.000000
    outer loop
      vertex -125.000000 -4000.000000 130.000000
      vertex -70.000000 -4000.000000 130.000000
      vertex -125.000000 -4300.000000 130.000000
    endloop
  endfacet
  facet normal 0.000000 0.000000 -1.000000
    outer loop
      vertex -125.000000 -4300.000000 130.000000
      vertex -70.000000 -4000.000000 130.000000
      vertex -70.000000 -4300.000000 130.000000
    endloop
  endfacet
  facet normal -1.000000 -0.000000 -0.000000
    outer loop
      vertex -70.000000 -4000.000000 130.000000
      vertex -70.000000 -4000.000000 80.000000
      vertex -70.000000 -4300.000000 130.000000
    endloop
  endfacet
  facet normal -1.000000 0.000000 0.000000
    outer loop
      vertex -70.000000 -4300.000000 130.000000
      vertex -70.000000 -4000.000000 80.000000
      vertex -70.000000 -4300.000000 80.000000
    endloop
  endfacet
  facet normal 0.000000 0.000000 1.000000
    outer loop
      vertex -70.000000 -4000.000000 80.000000
      vertex -300.000000 -4000.000000 80.000000
      vertex -70.000000 -4300.000000 80.000000
    endloop
  endfacet
  facet normal 0.000000 0.000000 1.000000
    outer loop
      vertex -70.000000 -4300.000000 80.000000
      vertex -300.000000 -4000.000000 80.000000
      vertex -300.000000 -4300.000000 80.000000
    endloop
  endfacet
  facet normal -1.000000 -0.000000 -0.000000
    outer loop
      vertex -300.000000 -4000.000000 80.000000
      vertex -300.000000 -4000.000000 -820.000000
      vertex -300.000000 -4300.000000 80.000000
    endloop
  endfacet
  facet normal -1.000000 0.000000 0.000000
    outer loop
      vertex -300.000000 -4300.000000 80.000000
      vertex -300.000000 -4000.000000 -820.000000
      vertex -300.000000 -4300.000000 -820.000000
    endloop
  endfacet
  facet normal 0.000000 0.000000 -1.000000
    outer loop
      vertex -300.000000 -4000.000000 -820.000000
      vertex -185.000000 -4000.000000 -820.000000
      vertex -300.000000 -4300.000000 -820.000000
    endloop
  endfacet
  facet normal 0.000000 0.000000 -1.000000
    outer loop
      vertex -300.000000 -4300.000000 -820.000000
      vertex -185.000000 -4000.000000 -820.000000
      vertex -185.000000 -4300.000000 -820.000000
    endloop
  endfacet
  facet normal 1.000000 0.000000 -0.000000
    outer loop
      vertex -185.000000 -4000.000000 -820.000000
      vertex -185.000000 -4000.000000 -600.000000
      vertex -185.000000 -4300.000000 -820.000000
    endloop
  endfacet
  facet normal 1.000000 0.000000 0.000000
    outer loop
      vertex -185.000000 -4300.000000 -820.000000
      vertex -185.000000 -4000.000000 -600.000000
      vertex -185.000000 -4300.000000 -600.000000
    endloop
  endfacet
  facet normal 0.000000 0.000000 -1.000000
    outer loop
      vertex -185.000000 -4000.000000 -600.000000
      vertex -165.000000 -4000.000000 -600.000000
      vertex -185.000000 -4300.000000 -600.000000
    endloop
  endfacet
  facet normal 0.000000 0.000000 -1.000000
    outer loop
      vertex -185.000000 -4300.000000 -600.000000
      vertex -165.000000 -4000.000000 -600.000000
      vertex -165.000000 -4300.000000 -600.000000
    endloop
  endfacet
  facet normal 0.000000 1.000000 0.000000
    outer loop
      vertex -185.000000 -4000.000000 -600.000000
      vertex -185.000000 -4000.000000 -820.000000
      vertex -300.000000 -4000.000000 -820.000000
    endloop
  endfacet
  facet normal 0.000000 1.000000 0.000000
    outer loop
      vertex 185.000000 -4000.000000 -600.000000
      vertex 300.000000 -4000.000000 -820.000000
      vertex 185.000000 -4000.000000 -820.000000
    endloop
  endfacet
  facet normal 0.000000 1.000000 0.000000
    outer loop
      vertex -300.000000 -4000.000000 80.000000
      vertex -185.000000 -4000.000000 -600.000000
      vertex -300.000000 -4000.000000 -820.000000
    endloop
  endfacet
  facet normal 0.000000 1.000000 0.000000
    outer loop
      vertex -70.000000 -4000.000000 80.000000
      vertex -165.000000 -4000.000000 -600.000000
      vertex -185.000000 -4000.000000 -600.000000
    endloop
  endfacet
  facet normal 0.000000 1.000000 0.000000
    outer loop
      vertex -70.000000 -4000.000000 80.000000
      vertex -185.000000 -4000.000000 -600.000000
      vertex -300.000000 -4000.000000 80.000000
    endloop
  endfacet
  facet normal 0.000000 1.000000 0.000000
    outer loop
      vertex 70.000000 -4000.000000 80.000000
      vertex 185.000000 -4000.000000 -600.000000
      vertex 165.000000 -4000.000000 -600.000000
    endloop
  endfacet
  facet normal 0.000000 1.000000 0.000000
    outer loop
      vertex 70.000000 -4000.000000 80.000000
      vertex 165.000000 -4000.000000 -600.000000
      vertex -165.000000 -4000.000000 -600.000000
    endloop
  endfacet
  facet normal 0.000000 1.000000 0.000000
    outer loop
      vertex 70.000000 -4000.000000 80.000000
      vertex -165.000000 -4000.000000 -600.000000
      vertex -70.000000 -4000.000000 80.000000
    endloop
  endfacet
  facet normal 0.000000 1.000000 0.000000
    outer loop
      vertex 70.000000 -4000.000000 130.000000
      vertex -70.000000 -4000.000000 80.000000
      vertex -70.000000 -4000.000000 130.000000
    endloop
  endfacet
  facet normal 0.000000 1.000000 0.000000
    outer loop
      vertex 70.000000 -4000.000000 130.000000
      vertex 70.000000 -4000.000000 80.000000
      vertex -70.000000 -4000.000000 80.000000
    endloop
  endfacet
  facet normal 0.000000 1.000000 0.000000
    outer loop
      vertex -125.000000 -4000.000000 410.000000
      vertex -70.000000 -4000.000000 130.000000
      vertex -125.000000 -4000.000000 130.000000
    endloop
  endfacet
  facet normal 0.000000 1.000000 0.000000
    outer loop
      vertex 300.000000 -4000.000000 80.000000
      vertex 300.000000 -4000.000000 -820.000000
      vertex 185.000000 -4000.000000 -600.000000
    endloop
  endfacet
  facet normal 0.000000 1.000000 0.000000
    outer loop
      vertex 300.000000 -4000.000000 80.000000
      vertex 185.000000 -4000.000000 -600.000000
      vertex 70.000000 -4000.000000 80.000000
    endloop
  endfacet
  facet normal 0.000000 1.000000 0.000000
    outer loop
      vertex 125.000000 -4000.000000 410.000000
      vertex 125.000000 -4000.000000 130.000000
      vertex 70.000000 -4000.000000 130.000000
    endloop
  endfacet
  facet normal 0.000000 1.000000 0.000000
    outer loop
      vertex 125.000000 -4000.000000 410.000000
      vertex 70.000000 -4000.000000 130.000000
      vertex -70.000000 -4000.000000 130.000000
    endloop
  endfacet
  facet normal 0.000000 1.000000 0.000000
    outer loop
      vertex 125.000000 -4000.000000 410.000000
      vertex -70.000000 -4000.000000 130.000000
      vertex -125.000000 -4000.000000 410.000000
    endloop
  endfacet
  facet normal 0.000000 1.000000 0.000000
    outer loop
      vertex 165.000000 -4000.000000 -600.000000
      vertex 165.000000 -4000.000000 -1450.000000
      vertex -165.000000 -4000.000000 -600.000000
    endloop
  endfacet
  facet normal 0.000000 1.000000 0.000000
    outer loop
      vertex -165.000000 -4000.000000 -1450.000000
      vertex -165.000000 -4000.000000 -600.000000
      vertex 165.000000 -4000.000000 -1450.000000
    endloop
  endfacet
  facet normal 0.000000 -1.000000 0.000000
    outer loop
      vertex -185.000000 -4300.000000 -820.000000
      vertex -185.000000 -4300.000000 -600.000000
      vertex -300.000000 -4300.000000 -820.000000
    endloop
  endfacet
  facet normal 0.000000 -1.000000 0.000000
    outer loop
      vertex 300.000000 -4300.000000 -820.000000
      vertex 185.000000 -4300.000000 -600.000000
      vertex 185.000000 -4300.000000 -820.000000
    endloop
  endfacet
  facet normal -0.000000 -1.000000 0.000000
    outer loop
      vertex -185.000000 -4300.000000 -600.000000
      vertex -300.000000 -4300.000000 80.000000
      vertex -300.000000 -4300.000000 -820.000000
    endloop
  endfacet
  facet normal 0.000000 -1.000000 0.000000
    outer loop
      vertex -165.000000 -4300.000000 -600.000000
      vertex -70.000000 -4300.000000 80.000000
      vertex -185.000000 -4300.000000 -600.000000
    endloop
  endfacet
  facet normal 0.000000 -1.000000 0.000000
    outer loop
      vertex -185.000000 -4300.000000 -600.000000
      vertex -70.000000 -4300.000000 80.000000
      vertex -300.000000 -4300.000000 80.000000
    endloop
  endfacet
  facet normal 0.000000 -1.000000 0.000000
    outer loop
      vertex 165.000000 -4300.000000 -600.000000
      vertex -70.000000 -4300.000000 80.000000
      vertex -165.000000 -4300.000000 -600.000000
    endloop
  endfacet
  facet normal 0.000000 -1.000000 0.000000
    outer loop
      vertex 185.000000 -4300.000000 -600.000000
      vertex 70.000000 -4300.000000 80.000000
      vertex 165.000000 -4300.000000 -600.000000
    endloop
  endfacet
  facet normal 0.000000 -1.000000 0.000000
    outer loop
      vertex 165.000000 -4300.000000 -600.000000
      vertex 70.000000 -4300.000000 80.000000
      vertex -70.000000 -4300.000000 80.000000
    endloop
  endfacet
  facet normal 0.000000 -1.000000 0.000000
    outer loop
      vertex -70.000000 -4300.000000 80.000000
      vertex 70.000000 -4300.000000 130.000000
      vertex -70.000000 -4300.000000 130.000000
    endloop
  endfacet
  facet normal 0.000000 -1.000000 0.000000
    outer loop
      vertex 70.000000 -4300.000000 80.000000
      vertex 70.000000 -4300.000000 130.000000
      vertex -70.000000 -4300.000000 80.000000
    endloop
  endfacet
  facet normal 0.000000 -1.000000 0.000000
    outer loop
      vertex -70.000000 -4300.000000 130.000000
      vertex -125.000000 -4300.000000 410.000000
      vertex -125.000000 -4300.000000 130.000000
    endloop
  endfacet
  facet normal 0.000000 -1.000000 0.000000
    outer loop
      vertex 300.000000 -4300.000000 -820.000000
      vertex 300.000000 -4300.000000 80.000000
      vertex 185.000000 -4300.000000 -600.000000
    endloop
  endfacet
  facet normal 0.000000 -1.000000 0.000000
    outer loop
      vertex 185.000000 -4300.000000 -600.000000
      vertex 300.000000 -4300.000000 80.000000
      vertex 70.000000 -4300.000000 80.000000
    endloop
  endfacet
  facet normal 0.000000 -1.000000 0.000000
    outer loop
      vertex 125.000000 -4300.000000 130.000000
      vertex 125.000000 -4300.000000 410.000000
      vertex 70.000000 -4300.000000 130.000000
    endloop
  endfacet
  facet normal 0.000000 -1.000000 0.000000
    outer loop
      vertex 70.000000 -4300.000000 130.000000
      vertex 125.000000 -4300.000000 410.000000
      vertex -70.000000 -4300.000000 130.000000
    endloop
  endfacet
  facet normal 0.000000 -1.000000 0.000000
    outer loop
      vertex -70.000000 -4300.000000 130.000000
      vertex 125.000000 -4300.000000 410.000000
      vertex -125.000000 -4300.000000 410.000000
    endloop
  endfacet
  facet normal 0.000000 -1.000000 0.000000
    outer loop
      vertex -165.000000 -4300.000000 -600.000000
      vertex -165.000000 -4300.000000 -1450.000000
      vertex 165.000000 -4300.000000 -600.000000
    endloop
  endfacet
  facet normal 0.000000 -1.000000 -0.000000
    outer loop
      vertex 165.000000 -4300.000000 -600.000000
      vertex -165.000000 -4300.000000 -1450.000000
      vertex 165.000000 -4300.000000 -1450.000000
    endloop
  endfacet
endsolid Mesh
