solid Mesh
  facet normal -1.000000 -0.000000 -0.000000
    outer loop
      vertex 5835.000000 -4000.000000 -600.000000
      vertex 5835.000000 -4000.000000 -1450.000000
      vertex 5835.000000 -4300.000000 -600.000000
    endloop
  endfacet
  facet normal -1.000000 0.000000 0.000000
    outer loop
      vertex 5835.000000 -4300.000000 -600.000000
      vertex 5835.000000 -4000.000000 -1450.000000
      vertex 5835.000000 -4300.000000 -1450.000000
    endloop
  endfacet
  facet normal 0.000000 0.000000 -1.000000
    outer loop
      vertex 5835.000000 -4000.000000 -1450.000000
      vertex 6165.000000 -4000.000000 -1450.000000
      vertex 5835.000000 -4300.000000 -1450.000000
    endloop
  endfacet
  facet normal 0.000000 0.000000 -1.000000
    outer loop
      vertex 5835.000000 -4300.000000 -1450.000000
      vertex 6165.000000 -4000.000000 -1450.000000
      vertex 6165.000000 -4300.000000 -1450.000000
    endloop
  endfacet
  facet normal 1.000000 0.000000 -0.000000
    outer loop
      vertex 6165.000000 -4000.000000 -1450.000000
      vertex 6165.000000 -4000.000000 -600.000000
      vertex 6165.000000 -4300.000000 -1450.000000
    endloop
  endfacet
  facet normal 1.000000 0.000000 0.000000
    outer loop
      vertex 6165.000000 -4300.000000 -1450.000000
      vertex 6165.000000 -4000.000000 -600.000000
      vertex 6165.000000 -4300.000000 -600.000000
    endloop
  endfacet
  facet normal 0.000000 0.000000 -1.000000
    outer loop
      vertex 6165.000000 -4000.000000 -600.000000
      vertex 6185.000000 -4000.000000 -600.000000
      vertex 6165.000000 -4300.000000 -600.000000
    endloop
  endfacet
  facet normal 0.000000 0.000000 -1.000000
    outer loop
      vertex 6165.000000 -4300.000000 -600.000000
      vertex 6185.000000 -4000.000000 -600.000000
      vertex 6185.000000 -4300.000000 -600.000000
    endloop
  endfacet
  facet normal -1.000000 -0.000000 -0.000000
    outer loop
      vertex 6185.000000 -4000.000000 -600.000000
      vertex 6185.000000 -4000.000000 -820.000000
      vertex 6185.000000 -4300.000000 -600.000000
    endloop
  endfacet
  facet normal -1.000000 0.000000 0.000000
    outer loop
      vertex 6185.000000 -4300.000000 -600.000000
      vertex 6185.000000 -4000.000000 -820.000000
      vertex 6185.000000 -4300.000000 -820.000000
    endloop
  endfacet
  facet normal 0.000000 0.000000 -1.000000
    outer loop
      vertex 6185.000000 -4000.000000 -820.000000
      vertex 6300.000000 -4000.000000 -820.000000
      vertex 6185.000000 -4300.000000 -820.000000
    endloop
  endfacet
  facet normal 0.000000 0.000000 -1.000000
    outer loop
      vertex 6185.000000 -4300.000000 -820.000000
      vertex 6300.000000 -4000.000000 -820.000000
      vertex 6300.000000 -4300.000000 -820.000000
    endloop
  endfacet
  facet normal 1.000000 0.000000 -0.000000
    outer loop
      vertex 6300.000000 -4000.000000 -820.000000
      vertex 6300.000000 -4000.000000 80.000000
      vertex 6300.000000 -4300.000000 -820.000000
    endloop
  endfacet
  facet normal 1.000000 0.000000 0.000000
    outer loop
      vertex 6300.000000 -4300.000000 -820.000000
      vertex 6300.000000 -4000.000000 80.000000
      vertex 6300.000000 -4300.000000 80.000000
    endloop
  endfacet
  facet normal 0.000000 0.000000 1.000000
    outer loop
      vertex 6300.000000 -4000.000000 80.000000
      vertex 6070.000000 -4000.000000 80.000000
      vertex 6300.000000 -4300.000000 80.000000
    endloop
  endfacet
  facet normal 0.000000 0.000000 1.000000
    outer loop
      vertex 6300.000000 -4300.000000 80.000000
      vertex 6070.000000 -4000.000000 80.000000
      vertex 6070.000000 -4300.000000 80.000000
    endloop
  endfacet
  facet normal 1.000000 0.000000 -0.000000
    outer loop
      vertex 6070.000000 -4000.000000 80.000000
      vertex 6070.000000 -4000.000000 130.000000
      vertex 6070.000000 -4300.000000 80.000000
    endloop
  endfacet
  facet normal 1.000000 0.000000 0.000000
    outer loop
      vertex 6070.000000 -4300.000000 80.000000
      vertex 6070.000000 -4000.000000 130.000000
      vertex 6070.000000 -4300.000000 130.000000
    endloop
  endfacet
  facet normal 0.000000 0.000000 -1.000000
    outer loop
      vertex 6070.000000 -4000.000000 130.000000
      vertex 6125.000000 -4000.000000 130.000000
      vertex 6070.000000 -4300.000000 130.000000
    endloop
  endfacet
  facet normal 0.000000 0.000000 -1.000000
    outer loop
      vertex 6070.000000 -4300.000000 130.000000
      vertex 6125.000000 -4000.000000 130.000000
      vertex 6125.000000 -4300.000000 130.000000
    endloop
  endfacet
  facet normal 1.000000 0.000000 -0.000000
    outer loop
      vertex 6125.000000 -4000.000000 130.000000
      vertex 6125.000000 -4000.000000 410.000000
      vertex 6125.000000 -4300.000000 130.000000
    endloop
  endfacet
  facet normal 1.000000 0.000000 0.000000
    outer loop
      vertex 6125.000000 -4300.000000 130.000000
      vertex 6125.000000 -4000.000000 410.000000
      vertex 6125.000000 -4300.000000 410.000000
    endloop
  endfacet
  facet normal 0.000000 -0.000000 1.000000
    outer loop
      vertex 6125.000000 -4300.000000 410.000000
      vertex 6125.000000 -4000.000000 410.000000
      vertex 5875.000000 -4300.000000 410.000000
    endloop
  endfacet
  facet normal 0.000000 0.000000 1.000000
    outer loop
      vertex 6125.000000 -4000.000000 410.000000
      vertex 5875.000000 -4000.000000 410.000000
      vertex 5875.000000 -4300.000000 410.000000
    endloop
  endfacet
  facet normal -1.000000 -0.000000 -0.000000
    outer loop
      vertex 5875.000000 -4000.000000 410.000000
      vertex 5875.000000 -4000.000000 130.000000
      vertex 5875.000000 -4300.000000 410.000000
    endloop
  endfacet
  facet normal -1.000000 0.000000 0.000000
    outer loop
      vertex 5875.000000 -4300.000000 410.000000
      vertex 5875.000000 -4000.000000 130.000000
      vertex 5875.000000 -4300.000000 130.000000
    endloop
  endfacet
  facet normal 0.000000 0.000000 -1.000000
    outer loop
      vertex 5875.000000 -4000.000000 130.000000
      vertex 5930.000000 -4000.000000 130.000000
      vertex 5875.000000 -4300.000000 130.000000
    endloop
  endfacet
  facet normal 0.000000 0.000000 -1.000000
    outer loop
      vertex 5875.000000 -4300.000000 130.000000
      vertex 5930.000000 -4000.000000 130.000000
      vertex 5930.000000 -4300.000000 130.000000
    endloop
  endfacet
  facet normal -1.000000 -0.000000 -0.000000
    outer loop
      vertex 5930.000000 -4000.000000 130.000000
      vertex 5930.000000 -4000.000000 80.000000
      vertex 5930.000000 -4300.000000 130.000000
    endloop
  endfacet
  facet normal -1.000000 0.000000 0.000000
    outer loop
      vertex 5930.000000 -4300.000000 130.000000
      vertex 5930.000000 -4000.000000 80.000000
      vertex 5930.000000 -4300.000000 80.000000
    endloop
  endfacet
  facet normal 0.000000 0.000000 1.000000
    outer loop
      vertex 5930.000000 -4000.000000 80.000000
      vertex 5700.000000 -4000.000000 80.000000
      vertex 5930.000000 -4300.000000 80.000000
    endloop
  endfacet
  facet normal 0.000000 0.000000 1.000000
    outer loop
      vertex 5930.000000 -4300.000000 80.000000
      vertex 5700.000000 -4000.000000 80.000000
      vertex 5700.000000 -4300.000000 80.000000
    endloop
  endfacet
  facet normal -1.000000 -0.000000 -0.000000
    outer loop
      vertex 5700.000000 -4000.000000 80.000000
      vertex 5700.000000 -4000.000000 -820.000000
      vertex 5700.000000 -4300.000000 80.000000
    endloop
  endfacet
  facet normal -1.000000 0.000000 0.000000
    outer loop
      vertex 5700.000000 -4300.000000 80.000000
      vertex 5700.000000 -4000.000000 -820.000000
      vertex 5700.000000 -4300.000000 -820.000000
    endloop
  endfacet
  facet normal 0.000000 0.000000 -1.000000
    outer loop
      vertex 5700.000000 -4000.000000 -820.000000
      vertex 5815.000000 -4000.000000 -820.000000
      vertex 5700.000000 -4300.000000 -820.000000
    endloop
  endfacet
  facet normal 0.000000 0.000000 -1.000000
    outer loop
      vertex 5700.000000 -4300.000000 -820.000000
      vertex 5815.000000 -4000.000000 -820.000000
      vertex 5815.000000 -4300.000000 -820.000000
    endloop
  endfacet
  facet normal 1.000000 0.000000 -0.000000
    outer loop
      vertex 5815.000000 -4000.000000 -820.000000
      vertex 5815.000000 -4000.000000 -600.000000
      vertex 5815.000000 -4300.000000 -820.000000
    endloop
  endfacet
  facet normal 1.000000 0.000000 0.000000
    outer loop
      vertex 5815.000000 -4300.000000 -820.000000
      vertex 5815.000000 -4000.000000 -600.000000
      vertex 5815.000000 -4300.000000 -600.000000
    endloop
  endfacet
  facet normal 0.000000 0.000000 -1.000000
    outer loop
      vertex 5815.000000 -4000.000000 -600.000000
      vertex 5835.000000 -4000.000000 -600.000000
      vertex 5815.000000 -4300.000000 -600.000000
    endloop
  endfacet
  facet normal 0.000000 0.000000 -1.000000
    outer loop
      vertex 5815.000000 -4300.000000 -600.000000
      vertex 5835.000000 -4000.000000 -600.000000
      vertex 5835.000000 -4300.000000 -600.000000
    endloop
  endfacet
  facet normal 0.000000 1.000000 0.000000
    outer loop
      vertex 5815.000000 -4000.000000 -600.000000
      vertex 5815.000000 -4000.000000 -820.000000
      vertex 5700.000000 -4000.000000 -820.000000
    endloop
  endfacet
  facet normal 0.000000 1.000000 0.000000
    outer loop
      vertex 6185.000000 -4000.000000 -600.000000
      vertex 6300.000000 -4000.000000 -820.000000
      vertex 6185.000000 -4000.000000 -820.000000
    endloop
  endfacet
  facet normal 0.000000 1.000000 0.000000
    outer loop
      vertex 5700.000000 -4000.000000 80.000000
      vertex 5815.000000 -4000.000000 -600.000000
      vertex 5700.000000 -4000.000000 -820.000000
    endloop
  endfacet
  facet normal 0.000000 1.000000 0.000000
    outer loop
      vertex 5930.000000 -4000.000000 80.000000
      vertex 5835.000000 -4000.000000 -600.000000
      vertex 5815.000000 -4000.000000 -600.000000
    endloop
  endfacet
  facet normal 0.000000 1.000000 0.000000
    outer loop
      vertex 5930.000000 -4000.000000 80.000000
      vertex 5815.000000 -4000.000000 -600.000000
      vertex 5700.000000 -4000.000000 80.000000
    endloop
  endfacet
  facet normal 0.000000 1.000000 0.000000
    outer loop
      vertex 6070.000000 -4000.000000 80.000000
      vertex 6185.000000 -4000.000000 -600.000000
      vertex 6165.000000 -4000.000000 -600.000000
    endloop
  endfacet
  facet normal 0.000000 1.000000 0.000000
    outer loop
      vertex 6070.000000 -4000.000000 80.000000
      vertex 6165.000000 -4000.000000 -600.000000
      vertex 5835.000000 -4000.000000 -600.000000
    endloop
  endfacet
  facet normal 0.000000 1.000000 0.000000
    outer loop
      vertex 6070.000000 -4000.000000 80.000000
      vertex 5835.000000 -4000.000000 -600.000000
      vertex 5930.000000 -4000.000000 80.000000
    endloop
  endfacet
  facet normal 0.000000 1.000000 0.000000
    outer loop
      vertex 6070.000000 -4000.000000 130.000000
      vertex 5930.000000 -4000.000000 80.000000
      vertex 5930.000000 -4000.000000 130.000000
    endloop
  endfacet
  facet normal 0.000000 1.000000 0.000000
    outer loop
      vertex 6070.000000 -4000.000000 130.000000
      vertex 6070.000000 -4000.000000 80.000000
      vertex 5930.000000 -4000.000000 80.000000
    endloop
  endfacet
  facet normal 0.000000 1.000000 0.000000
    outer loop
      vertex 5875.000000 -4000.000000 410.000000
      vertex 5930.000000 -4000.000000 130.000000
      vertex 5875.000000 -4000.000000 130.000000
    endloop
  endfacet
  facet normal 0.000000 1.000000 0.000000
    outer loop
      vertex 6300.000000 -4000.000000 80.000000
      vertex 6300.000000 -4000.000000 -820.000000
      vertex 6185.000000 -4000.000000 -600.000000
    endloop
  endfacet
  facet normal 0.000000 1.000000 0.000000
    outer loop
      vertex 6300.000000 -4000.000000 80.000000
      vertex 6185.000000 -4000.000000 -600.000000
      vertex 6070.000000 -4000.000000 80.000000
    endloop
  endfacet
  facet normal 0.000000 1.000000 0.000000
    outer loop
      vertex 6125.000000 -4000.000000 410.000000
      vertex 6125.000000 -4000.000000 130.000000
      vertex 6070.000000 -4000.000000 130.000000
    endloop
  endfacet
  facet normal 0.000000 1.000000 0.000000
    outer loop
      vertex 6125.000000 -4000.000000 410.000000
      vertex 6070.000000 -4000.000000 130.000000
      vertex 5930.000000 -4000.000000 130.000000
    endloop
  endfacet
  facet normal 0.000000 1.000000 0.000000
    outer loop
      vertex 6125.000000 -4000.000000 410.000000
      vertex 5930.000000 -4000.000000 130.000000
      vertex 5875.000000 -4000.000000 410.000000
    endloop
  endfacet
  facet normal 0.000000 1.000000 0.000000
    outer loop
      vertex 6165.000000 -4000.000000 -600.000000
      vertex 6165.000000 -4000.000000 -1450.000000
      vertex 5835.000000 -4000.000000 -600.000000
    endloop
  endfacet
  facet normal 0.000000 1.000000 0.000000
    outer loop
      vertex 5835.000000 -4000.000000 -1450.000000
      vertex 5835.000000 -4000.000000 -600.000000
      vertex 6165.000000 -4000.000000 -1450.000000
    endloop
  endfacet
  facet normal 0.000000 -1.000000 0.000000
    outer loop
      vertex 5815.000000 -4300.000000 -820.000000
      vertex 5815.000000 -4300.000000 -600.000000
      vertex 5700.000000 -4300.000000 -820.000000
    endloop
  endfacet
  facet normal 0.000000 -1.000000 0.000000
    outer loop
      vertex 6300.000000 -4300.000000 -820.000000
      vertex 6185.000000 -4300.000000 -600.000000
      vertex 6185.000000 -4300.000000 -820.000000
    endloop
  endfacet
  facet normal -0.000000 -1.000000 0.000000
    outer loop
      vertex 5815.000000 -4300.000000 -600.000000
      vertex 5700.000000 -4300.000000 80.000000
      vertex 5700.000000 -4300.000000 -820.000000
    endloop
  endfacet
  facet normal 0.000000 -1.000000 0.000000
    outer loop
      vertex 5835.000000 -4300.000000 -600.000000
      vertex 5930.000000 -4300.000000 80.000000
      vertex 5815.000000 -4300.000000 -600.000000
    endloop
  endfacet
  facet normal 0.000000 -1.000000 0.000000
    outer loop
      vertex 5815.000000 -4300.000000 -600.000000
      vertex 5930.000000 -4300.000000 80.000000
      vertex 5700.000000 -4300.000000 80.000000
    endloop
  endfacet
  facet normal 0.000000 -1.000000 0.000000
    outer loop
      vertex 6165.000000 -4300.000000 -600.000000
      vertex 5930.000000 -4300.000000 80.000000
      vertex 5835.000000 -4300.000000 -600.000000
    endloop
  endfacet
  facet normal 0.000000 -1.000000 0.000000
    outer loop
      vertex 6185.000000 -4300.000000 -600.000000
      vertex 6070.000000 -4300.000000 80.000000
      vertex 6165.000000 -4300.000000 -600.000000
    endloop
  endfacet
  facet normal 0.000000 -1.000000 0.000000
    outer loop
      vertex 6165.000000 -4300.000000 -600.000000
      vertex 6070.000000 -4300.000000 80.000000
      vertex 5930.000000 -4300.000000 80.000000
    endloop
  endfacet
  facet normal 0.000000 -1.000000 0.000000
    outer loop
      vertex 5930.000000 -4300.000000 80.000000
      vertex 6070.000000 -4300.000000 130.000000
      vertex 5930.000000 -4300.000000 130.000000
    endloop
  endfacet
  facet normal 0.000000 -1.000000 0.000000
    outer loop
      vertex 6070.000000 -4300.000000 80.000000
      vertex 6070.000000 -4300.000000 130.000000
      vertex 5930.000000 -4300.000000 80.000000
    endloop
  endfacet
  facet normal 0.000000 -1.000000 0.000000
    outer loop
      vertex 5930.000000 -4300.000000 130.000000
      vertex 5875.000000 -4300.000000 410.000000
      vertex 5875.000000 -4300.000000 130.000000
    endloop
  endfacet
  facet normal 0.000000 -1.000000 0.000000
    outer loop
      vertex 6300.000000 -4300.000000 -820.000000
      vertex 6300.000000 -4300.000000 80.000000
      vertex 6185.000000 -4300.000000 -600.000000
    endloop
  endfacet
  facet normal 0.000000 -1.000000 0.000000
    outer loop
      vertex 6185.000000 -4300.000000 -600.000000
      vertex 6300.000000 -4300.000000 80.000000
      vertex 6070.000000 -4300.000000 80.000000
    endloop
  endfacet
  facet normal 0.000000 -1.000000 0.000000
    outer loop
      vertex 6125.000000 -4300.000000 130.000000
      vertex 6125.000000 -4300.000000 410.000000
      vertex 6070.000000 -4300.000000 130.000000
    endloop
  endfacet
  facet normal 0.000000 -1.000000 0.000000
    outer loop
      vertex 6070.000000 -4300.000000 130.000000
      vertex 6125.000000 -4300.000000 410.000000
      vertex 5930.000000 -4300.000000 130.000000
    endloop
  endfacet
  facet normal 0.000000 -1.000000 0.000000
    outer loop
      vertex 5930.000000 -4300.000000 130.000000
      vertex 6125.000000 -4300.000000 410.000000
      vertex 5875.000000 -4300.000000 410.000000
    endloop
  endfacet
  facet normal 0.000000 -1.000000 0.000000
    outer loop
      vertex 5835.000000 -4300.000000 -600.000000
      vertex 5835.000000 -4300.000000 -1450.000000
      vertex 6165.000000 -4300.000000 -600.000000
    endloop
  endfacet
  facet normal 0.000000 -1.000000 -0.000000
    outer loop
      vertex 6165.000000 -4300.000000 -600.000000
      vertex 5835.000000 -4300.000000 -1450.000000
      vertex 6165.000000 -4300.000000 -1450.000000
    endloop
  endfacet
endsolid Mesh
