solid Mesh
  facet normal -1.000000 0.000000 0.000000
    outer loop
      vertex -1754.800049 -1754.800049 -1754.800049
      vertex -1754.800049 -1754.800049 1754.800049
      vertex -1754.800049 1754.800049 -1754.800049
    endloop
  endfacet
  facet normal -1.000000 0.000000 0.000000
    outer loop
      vertex -1754.800049 1754.800049 -1754.800049
      vertex -1754.800049 -1754.800049 1754.800049
      vertex -1754.800049 1754.800049 1754.800049
    endloop
  endfacet
  facet normal 0.000000 -1.000000 0.000000
    outer loop
      vertex 1754.800049 -1754.800049 -1754.800049
      vertex 1754.800049 -1754.800049 1754.800049
      vertex -1754.800049 -1754.800049 -1754.800049
    endloop
  endfacet
  facet normal 0.000000 -1.000000 0.000000
    outer loop
      vertex -1754.800049 -1754.800049 -1754.800049
      vertex 1754.800049 -1754.800049 1754.800049
      vertex -1754.800049 -1754.800049 1754.800049
    endloop
  endfacet
  facet normal 0.000000 0.000000 1.000000
    outer loop
      vertex 1754.800049 1754.800049 1754.800049
      vertex -1754.800049 1754.800049 1754.800049
      vertex -1754.800049 -1754.800049 1754.800049
    endloop
  endfacet
  facet normal 0.000000 0.000000 1.000000
    outer loop
      vertex 1754.800049 1754.800049 1754.800049
      vertex -1754.800049 -1754.800049 1754.800049
      vertex 1754.800049 -1754.800049 1754.800049
    endloop
  endfacet
  facet normal 0.000000 1.000000 0.000000
    outer loop
      vertex 1754.800049 1754.800049 1754.800049
      vertex 1754.800049 1754.800049 -1754.800049
      vertex -1754.800049 1754.800049 -1754.800049
    endloop
  endfacet
  facet normal 0.000000 1.000000 0.000000
    outer loop
      vertex 1754.800049 1754.800049 1754.800049
      vertex -1754.800049 1754.800049 -1754.800049
      vertex -1754.800049 1754.800049 1754.800049
    endloop
  endfacet
  facet normal 0.000000 0.000000 -1.000000
    outer loop
      vertex -1754.800049 1754.800049 -1754.800049
      vertex 1754.800049 1754.800049 -1754.800049
      vertex -1754.800049 -1754.800049 -1754.800049
    endloop
  endfacet
  facet normal 0.000000 0.000000 -1.000000
    outer loop
      vertex -1754.800049 -1754.800049 -1754.800049
      vertex 1754.800049 1754.800049 -1754.800049
      vertex 1754.800049 -1754.800049 -1754.800049
    endloop
  endfacet
  facet normal 1.000000 0.000000 0.000000
    outer loop
      vertex 1754.800049 -1754.800049 1754.800049
      vertex 1754.800049 -1754.800049 -1754.800049
      vertex 1754.800049 1754.800049 -1754.800049
    endloop
  endfacet
  facet normal 1.000000 -0.000000 0.000000
    outer loop
      vertex 1754.800049 -1754.800049 1754.800049
      vertex 1754.800049 1754.800049 -1754.800049
      vertex 1754.800049 1754.800049 1754.800049
    endloop
  endfacet
  facet normal 1.000000 0.000000 0.000000
    outer loop
      vertex -1450.000000 -1450.000000 1450.000000
      vertex -1450.000000 -1450.000000 -1450.000000
      vertex -1450.000000 1450.000000 -1450.000000
    endloop
  endfacet
  facet normal 1.000000 -0.000000 0.000000
    outer loop
      vertex -1450.000000 -1450.000000 1450.000000
      vertex -1450.000000 1450.000000 -1450.000000
      vertex -1450.000000 1450.000000 1450.000000
    endloop
  endfacet
  facet normal 0.000000 1.000000 0.000000
    outer loop
      vertex 1450.000000 -1450.000000 1450.000000
      vertex 1450.000000 -1450.000000 -1450.000000
      vertex -1450.000000 -1450.000000 -1450.000000
    endloop
  endfacet
  facet normal 0.000000 1.000000 0.000000
    outer loop
      vertex 1450.000000 -1450.000000 1450.000000
      vertex -1450.000000 -1450.000000 -1450.000000
      vertex -1450.000000 -1450.000000 1450.000000
    endloop
  endfacet
  facet normal 0.000000 0.000000 -1.000000
    outer loop
      vertex -1450.000000 1450.000000 1450.000000
      vertex 1450.000000 1450.000000 1450.000000
      vertex -1450.000000 -1450.000000 1450.000000
    endloop
  endfacet
  facet normal 0.000000 0.000000 -1.000000
    outer loop
      vertex -1450.000000 -1450.000000 1450.000000
      vertex 1450.000000 1450.000000 1450.000000
      vertex 1450.000000 -1450.000000 1450.000000
    endloop
  endfacet
  facet normal 0.000000 -1.000000 0.000000
    outer loop
      vertex 1450.000000 1450.000000 -1450.000000
      vertex 1450.000000 1450.000000 1450.000000
      vertex -1450.000000 1450.000000 -1450.000000
    endloop
  endfacet
  facet normal 0.000000 -1.000000 0.000000
    outer loop
      vertex -1450.000000 1450.000000 -1450.000000
      vertex 1450.000000 1450.000000 1450.000000
      vertex -1450.000000 1450.000000 1450.000000
    endloop
  endfacet
  facet normal 0.000000 0.000000 1.000000
    outer loop
      vertex 1450.000000 1450.000000 -1450.000000
      vertex -1450.000000 1450.000000 -1450.000000
      vertex -1450.000000 -1450.000000 -1450.000000
    endloop
  endfacet
  facet normal 0.000000 0.000000 1.000000
    outer loop
      vertex 1450.000000 1450.000000 -1450.000000
      vertex -1450.000000 -1450.000000 -1450.000000
      vertex 1450.000000 -1450.000000 -1450.000000
    endloop
  endfacet
  facet normal -1.000000 0.000000 0.000000
    outer loop
      vertex 1450.000000 -1450.000000 -1450.000000
      vertex 1450.000000 -1450.000000 1450.000000
      vertex 1450.000000 1450.000000 -1450.000000
    endloop
  endfacet
  facet normal -1.000000 0.000000 0.000000
    outer loop
      vertex 1450.000000 1450.000000 -1450.000000
      vertex 1450.000000 -1450.000000 1450.000000
      vertex 1450.000000 1450.000000 1450.000000
    endloop
  endfacet
endsolid Mesh
