solid Mesh
  facet normal 1.000000 -0.000000 0.000000
    outer loop
      vertex -2095.000000 -2260.000000 -600.000000
      vertex -2095.000000 -2060.000000 -1450.000000
      vertex -2095.000000 -2060.000000 -600.000000
    endloop
  endfacet
  facet normal 1.000000 0.000000 0.000000
    outer loop
      vertex -2095.000000 -2260.000000 -600.000000
      vertex -2095.000000 -2260.000000 -1450.000000
      vertex -2095.000000 -2060.000000 -1450.000000
    endloop
  endfacet
  facet normal 0.000000 0.000000 -1.000000
    outer loop
      vertex -2095.000000 -2260.000000 -1450.000000
      vertex -2425.000000 -2260.000000 -1450.000000
      vertex -2095.000000 -2060.000000 -1450.000000
    endloop
  endfacet
  facet normal -0.000000 0.000000 -1.000000
    outer loop
      vertex -2095.000000 -2060.000000 -1450.000000
      vertex -2425.000000 -2260.000000 -1450.000000
      vertex -2425.000000 -2060.000000 -1450.000000
    endloop
  endfacet
  facet normal -1.000000 0.000000 0.000000
    outer loop
      vertex -2425.000000 -2260.000000 -1450.000000
      vertex -2425.000000 -2260.000000 -600.000000
      vertex -2425.000000 -2060.000000 -1450.000000
    endloop
  endfacet
  facet normal -1.000000 0.000000 0.000000
    outer loop
      vertex -2425.000000 -2060.000000 -1450.000000
      vertex -2425.000000 -2260.000000 -600.000000
      vertex -2425.000000 -2060.000000 -600.000000
    endloop
  endfacet
  facet normal 0.000000 0.000000 -1.000000
    outer loop
      vertex -2425.000000 -2260.000000 -600.000000
      vertex -2445.000000 -2260.000000 -600.000000
      vertex -2425.000000 -2060.000000 -600.000000
    endloop
  endfacet
  facet normal -0.000000 0.000000 -1.000000
    outer loop
      vertex -2425.000000 -2060.000000 -600.000000
      vertex -2445.000000 -2260.000000 -600.000000
      vertex -2445.000000 -2060.000000 -600.000000
    endloop
  endfacet
  facet normal 1.000000 -0.000000 0.000000
    outer loop
      vertex -2445.000000 -2260.000000 -600.000000
      vertex -2445.000000 -2060.000000 -820.000000
      vertex -2445.000000 -2060.000000 -600.000000
    endloop
  endfacet
  facet normal 1.000000 0.000000 0.000000
    outer loop
      vertex -2445.000000 -2260.000000 -600.000000
      vertex -2445.000000 -2260.000000 -820.000000
      vertex -2445.000000 -2060.000000 -820.000000
    endloop
  endfacet
  facet normal 0.000000 0.000000 -1.000000
    outer loop
      vertex -2445.000000 -2260.000000 -820.000000
      vertex -2560.000000 -2260.000000 -820.000000
      vertex -2445.000000 -2060.000000 -820.000000
    endloop
  endfacet
  facet normal -0.000000 0.000000 -1.000000
    outer loop
      vertex -2445.000000 -2060.000000 -820.000000
      vertex -2560.000000 -2260.000000 -820.000000
      vertex -2560.000000 -2060.000000 -820.000000
    endloop
  endfacet
  facet normal -1.000000 0.000000 0.000000
    outer loop
      vertex -2560.000000 -2260.000000 -820.000000
      vertex -2560.000000 -2260.000000 80.000000
      vertex -2560.000000 -2060.000000 -820.000000
    endloop
  endfacet
  facet normal -1.000000 0.000000 0.000000
    outer loop
      vertex -2560.000000 -2060.000000 -820.000000
      vertex -2560.000000 -2260.000000 80.000000
      vertex -2560.000000 -2060.000000 80.000000
    endloop
  endfacet
  facet normal 0.000000 0.000000 1.000000
    outer loop
      vertex -2560.000000 -2260.000000 80.000000
      vertex -2330.000000 -2260.000000 80.000000
      vertex -2560.000000 -2060.000000 80.000000
    endloop
  endfacet
  facet normal -0.000000 0.000000 1.000000
    outer loop
      vertex -2560.000000 -2060.000000 80.000000
      vertex -2330.000000 -2260.000000 80.000000
      vertex -2330.000000 -2060.000000 80.000000
    endloop
  endfacet
  facet normal -1.000000 0.000000 0.000000
    outer loop
      vertex -2330.000000 -2260.000000 80.000000
      vertex -2330.000000 -2260.000000 130.000000
      vertex -2330.000000 -2060.000000 80.000000
    endloop
  endfacet
  facet normal -1.000000 0.000000 0.000000
    outer loop
      vertex -2330.000000 -2060.000000 80.000000
      vertex -2330.000000 -2260.000000 130.000000
      vertex -2330.000000 -2060.000000 130.000000
    endloop
  endfacet
  facet normal -0.000000 -0.000000 -1.000000
    outer loop
      vertex -2330.000000 -2060.000000 130.000000
      vertex -2330.000000 -2260.000000 130.000000
      vertex -2385.000000 -2060.000000 130.000000
    endloop
  endfacet
  facet normal 0.000000 0.000000 -1.000000
    outer loop
      vertex -2330.000000 -2260.000000 130.000000
      vertex -2385.000000 -2260.000000 130.000000
      vertex -2385.000000 -2060.000000 130.000000
    endloop
  endfacet
  facet normal -1.000000 0.000000 0.000000
    outer loop
      vertex -2385.000000 -2260.000000 130.000000
      vertex -2385.000000 -2260.000000 410.000000
      vertex -2385.000000 -2060.000000 130.000000
    endloop
  endfacet
  facet normal -1.000000 0.000000 0.000000
    outer loop
      vertex -2385.000000 -2060.000000 130.000000
      vertex -2385.000000 -2260.000000 410.000000
      vertex -2385.000000 -2060.000000 410.000000
    endloop
  endfacet
  facet normal 0.000000 0.000000 1.000000
    outer loop
      vertex -2385.000000 -2260.000000 410.000000
      vertex -2135.000000 -2260.000000 410.000000
      vertex -2385.000000 -2060.000000 410.000000
    endloop
  endfacet
  facet normal -0.000000 0.000000 1.000000
    outer loop
      vertex -2385.000000 -2060.000000 410.000000
      vertex -2135.000000 -2260.000000 410.000000
      vertex -2135.000000 -2060.000000 410.000000
    endloop
  endfacet
  facet normal 1.000000 -0.000000 0.000000
    outer loop
      vertex -2135.000000 -2260.000000 410.000000
      vertex -2135.000000 -2260.000000 130.000000
      vertex -2135.000000 -2060.000000 410.000000
    endloop
  endfacet
  facet normal 1.000000 0.000000 0.000000
    outer loop
      vertex -2135.000000 -2060.000000 410.000000
      vertex -2135.000000 -2260.000000 130.000000
      vertex -2135.000000 -2060.000000 130.000000
    endloop
  endfacet
  facet normal -0.000000 -0.000000 -1.000000
    outer loop
      vertex -2135.000000 -2060.000000 130.000000
      vertex -2135.000000 -2260.000000 130.000000
      vertex -2190.000000 -2060.000000 130.000000
    endloop
  endfacet
  facet normal 0.000000 0.000000 -1.000000
    outer loop
      vertex -2135.000000 -2260.000000 130.000000
      vertex -2190.000000 -2260.000000 130.000000
      vertex -2190.000000 -2060.000000 130.000000
    endloop
  endfacet
  facet normal 1.000000 -0.000000 0.000000
    outer loop
      vertex -2190.000000 -2260.000000 130.000000
      vertex -2190.000000 -2260.000000 80.000000
      vertex -2190.000000 -2060.000000 130.000000
    endloop
  endfacet
  facet normal 1.000000 0.000000 0.000000
    outer loop
      vertex -2190.000000 -2060.000000 130.000000
      vertex -2190.000000 -2260.000000 80.000000
      vertex -2190.000000 -2060.000000 80.000000
    endloop
  endfacet
  facet normal 0.000000 0.000000 1.000000
    outer loop
      vertex -2190.000000 -2260.000000 80.000000
      vertex -1960.000000 -2260.000000 80.000000
      vertex -2190.000000 -2060.000000 80.000000
    endloop
  endfacet
  facet normal -0.000000 0.000000 1.000000
    outer loop
      vertex -2190.000000 -2060.000000 80.000000
      vertex -1960.000000 -2260.000000 80.000000
      vertex -1960.000000 -2060.000000 80.000000
    endloop
  endfacet
  facet normal 1.000000 -0.000000 0.000000
    outer loop
      vertex -1960.000000 -2260.000000 80.000000
      vertex -1960.000000 -2260.000000 -820.000000
      vertex -1960.000000 -2060.000000 80.000000
    endloop
  endfacet
  facet normal 1.000000 0.000000 0.000000
    outer loop
      vertex -1960.000000 -2060.000000 80.000000
      vertex -1960.000000 -2260.000000 -820.000000
      vertex -1960.000000 -2060.000000 -820.000000
    endloop
  endfacet
  facet normal 0.000000 0.000000 -1.000000
    outer loop
      vertex -1960.000000 -2260.000000 -820.000000
      vertex -2075.000000 -2260.000000 -820.000000
      vertex -1960.000000 -2060.000000 -820.000000
    endloop
  endfacet
  facet normal -0.000000 0.000000 -1.000000
    outer loop
      vertex -1960.000000 -2060.000000 -820.000000
      vertex -2075.000000 -2260.000000 -820.000000
      vertex -2075.000000 -2060.000000 -820.000000
    endloop
  endfacet
  facet normal -1.000000 0.000000 0.000000
    outer loop
      vertex -2075.000000 -2260.000000 -820.000000
      vertex -2075.000000 -2260.000000 -600.000000
      vertex -2075.000000 -2060.000000 -820.000000
    endloop
  endfacet
  facet normal -1.000000 0.000000 0.000000
    outer loop
      vertex -2075.000000 -2060.000000 -820.000000
      vertex -2075.000000 -2260.000000 -600.000000
      vertex -2075.000000 -2060.000000 -600.000000
    endloop
  endfacet
  facet normal 0.000000 0.000000 -1.000000
    outer loop
      vertex -2075.000000 -2260.000000 -600.000000
      vertex -2095.000000 -2260.000000 -600.000000
      vertex -2075.000000 -2060.000000 -600.000000
    endloop
  endfacet
  facet normal -0.000000 0.000000 -1.000000
    outer loop
      vertex -2075.000000 -2060.000000 -600.000000
      vertex -2095.000000 -2260.000000 -600.000000
      vertex -2095.000000 -2060.000000 -600.000000
    endloop
  endfacet
  facet normal 0.000000 -1.000000 0.000000
    outer loop
      vertex -2075.000000 -2260.000000 -600.000000
      vertex -2075.000000 -2260.000000 -820.000000
      vertex -1960.000000 -2260.000000 -820.000000
    endloop
  endfacet
  facet normal 0.000000 -1.000000 -0.000000
    outer loop
      vertex -2445.000000 -2260.000000 -600.000000
      vertex -2560.000000 -2260.000000 -820.000000
      vertex -2445.000000 -2260.000000 -820.000000
    endloop
  endfacet
  facet normal 0.000000 -1.000000 -0.000000
    outer loop
      vertex -1960.000000 -2260.000000 80.000000
      vertex -2075.000000 -2260.000000 -600.000000
      vertex -1960.000000 -2260.000000 -820.000000
    endloop
  endfacet
  facet normal 0.000000 -1.000000 0.000000
    outer loop
      vertex -2190.000000 -2260.000000 80.000000
      vertex -2095.000000 -2260.000000 -600.000000
      vertex -2075.000000 -2260.000000 -600.000000
    endloop
  endfacet
  facet normal 0.000000 -1.000000 0.000000
    outer loop
      vertex -2190.000000 -2260.000000 80.000000
      vertex -2075.000000 -2260.000000 -600.000000
      vertex -1960.000000 -2260.000000 80.000000
    endloop
  endfacet
  facet normal 0.000000 -1.000000 0.000000
    outer loop
      vertex -2330.000000 -2260.000000 80.000000
      vertex -2445.000000 -2260.000000 -600.000000
      vertex -2425.000000 -2260.000000 -600.000000
    endloop
  endfacet
  facet normal 0.000000 -1.000000 -0.000000
    outer loop
      vertex -2330.000000 -2260.000000 80.000000
      vertex -2425.000000 -2260.000000 -600.000000
      vertex -2095.000000 -2260.000000 -600.000000
    endloop
  endfacet
  facet normal 0.000000 -1.000000 0.000000
    outer loop
      vertex -2330.000000 -2260.000000 80.000000
      vertex -2095.000000 -2260.000000 -600.000000
      vertex -2190.000000 -2260.000000 80.000000
    endloop
  endfacet
  facet normal 0.000000 -1.000000 0.000000
    outer loop
      vertex -2330.000000 -2260.000000 130.000000
      vertex -2190.000000 -2260.000000 80.000000
      vertex -2190.000000 -2260.000000 130.000000
    endloop
  endfacet
  facet normal 0.000000 -1.000000 0.000000
    outer loop
      vertex -2330.000000 -2260.000000 130.000000
      vertex -2330.000000 -2260.000000 80.000000
      vertex -2190.000000 -2260.000000 80.000000
    endloop
  endfacet
  facet normal 0.000000 -1.000000 -0.000000
    outer loop
      vertex -2135.000000 -2260.000000 410.000000
      vertex -2190.000000 -2260.000000 130.000000
      vertex -2135.000000 -2260.000000 130.000000
    endloop
  endfacet
  facet normal 0.000000 -1.000000 0.000000
    outer loop
      vertex -2560.000000 -2260.000000 80.000000
      vertex -2560.000000 -2260.000000 -820.000000
      vertex -2445.000000 -2260.000000 -600.000000
    endloop
  endfacet
  facet normal 0.000000 -1.000000 0.000000
    outer loop
      vertex -2560.000000 -2260.000000 80.000000
      vertex -2445.000000 -2260.000000 -600.000000
      vertex -2330.000000 -2260.000000 80.000000
    endloop
  endfacet
  facet normal 0.000000 -1.000000 0.000000
    outer loop
      vertex -2385.000000 -2260.000000 410.000000
      vertex -2385.000000 -2260.000000 130.000000
      vertex -2330.000000 -2260.000000 130.000000
    endloop
  endfacet
  facet normal 0.000000 -1.000000 0.000000
    outer loop
      vertex -2385.000000 -2260.000000 410.000000
      vertex -2330.000000 -2260.000000 130.000000
      vertex -2190.000000 -2260.000000 130.000000
    endloop
  endfacet
  facet normal 0.000000 -1.000000 0.000000
    outer loop
      vertex -2385.000000 -2260.000000 410.000000
      vertex -2190.000000 -2260.000000 130.000000
      vertex -2135.000000 -2260.000000 410.000000
    endloop
  endfacet
  facet normal 0.000000 -1.000000 0.000000
    outer loop
      vertex -2425.000000 -2260.000000 -600.000000
      vertex -2425.000000 -2260.000000 -1450.000000
      vertex -2095.000000 -2260.000000 -1450.000000
    endloop
  endfacet
  facet normal 0.000000 -1.000000 0.000000
    outer loop
      vertex -2425.000000 -2260.000000 -600.000000
      vertex -2095.000000 -2260.000000 -1450.000000
      vertex -2095.000000 -2260.000000 -600.000000
    endloop
  endfacet
  facet normal 0.000000 1.000000 0.000000
    outer loop
      vertex -2075.000000 -2060.000000 -820.000000
      vertex -2075.000000 -2060.000000 -600.000000
      vertex -1960.000000 -2060.000000 -820.000000
    endloop
  endfacet
  facet normal 0.000000 1.000000 0.000000
    outer loop
      vertex -2560.000000 -2060.000000 -820.000000
      vertex -2445.000000 -2060.000000 -600.000000
      vertex -2445.000000 -2060.000000 -820.000000
    endloop
  endfacet
  facet normal -0.000000 1.000000 0.000000
    outer loop
      vertex -2075.000000 -2060.000000 -600.000000
      vertex -1960.000000 -2060.000000 80.000000
      vertex -1960.000000 -2060.000000 -820.000000
    endloop
  endfacet
  facet normal 0.000000 1.000000 -0.000000
    outer loop
      vertex -2095.000000 -2060.000000 -600.000000
      vertex -2190.000000 -2060.000000 80.000000
      vertex -2075.000000 -2060.000000 -600.000000
    endloop
  endfacet
  facet normal 0.000000 1.000000 -0.000000
    outer loop
      vertex -2075.000000 -2060.000000 -600.000000
      vertex -2190.000000 -2060.000000 80.000000
      vertex -1960.000000 -2060.000000 80.000000
    endloop
  endfacet
  facet normal 0.000000 1.000000 0.000000
    outer loop
      vertex -2445.000000 -2060.000000 -600.000000
      vertex -2330.000000 -2060.000000 80.000000
      vertex -2425.000000 -2060.000000 -600.000000
    endloop
  endfacet
  facet normal 0.000000 1.000000 0.000000
    outer loop
      vertex -2425.000000 -2060.000000 -600.000000
      vertex -2330.000000 -2060.000000 80.000000
      vertex -2095.000000 -2060.000000 -600.000000
    endloop
  endfacet
  facet normal 0.000000 1.000000 0.000000
    outer loop
      vertex -2095.000000 -2060.000000 -600.000000
      vertex -2330.000000 -2060.000000 80.000000
      vertex -2190.000000 -2060.000000 80.000000
    endloop
  endfacet
  facet normal 0.000000 1.000000 -0.000000
    outer loop
      vertex -2190.000000 -2060.000000 80.000000
      vertex -2330.000000 -2060.000000 130.000000
      vertex -2190.000000 -2060.000000 130.000000
    endloop
  endfacet
  facet normal 0.000000 1.000000 0.000000
    outer loop
      vertex -2330.000000 -2060.000000 80.000000
      vertex -2330.000000 -2060.000000 130.000000
      vertex -2190.000000 -2060.000000 80.000000
    endloop
  endfacet
  facet normal 0.000000 1.000000 0.000000
    outer loop
      vertex -2190.000000 -2060.000000 130.000000
      vertex -2135.000000 -2060.000000 410.000000
      vertex -2135.000000 -2060.000000 130.000000
    endloop
  endfacet
  facet normal 0.000000 1.000000 0.000000
    outer loop
      vertex -2560.000000 -2060.000000 -820.000000
      vertex -2560.000000 -2060.000000 80.000000
      vertex -2445.000000 -2060.000000 -600.000000
    endloop
  endfacet
  facet normal 0.000000 1.000000 -0.000000
    outer loop
      vertex -2445.000000 -2060.000000 -600.000000
      vertex -2560.000000 -2060.000000 80.000000
      vertex -2330.000000 -2060.000000 80.000000
    endloop
  endfacet
  facet normal 0.000000 1.000000 0.000000
    outer loop
      vertex -2385.000000 -2060.000000 130.000000
      vertex -2385.000000 -2060.000000 410.000000
      vertex -2330.000000 -2060.000000 130.000000
    endloop
  endfacet
  facet normal 0.000000 1.000000 -0.000000
    outer loop
      vertex -2330.000000 -2060.000000 130.000000
      vertex -2385.000000 -2060.000000 410.000000
      vertex -2190.000000 -2060.000000 130.000000
    endloop
  endfacet
  facet normal 0.000000 1.000000 -0.000000
    outer loop
      vertex -2190.000000 -2060.000000 130.000000
      vertex -2385.000000 -2060.000000 410.000000
      vertex -2135.000000 -2060.000000 410.000000
    endloop
  endfacet
  facet normal 0.000000 1.000000 0.000000
    outer loop
      vertex -2425.000000 -2060.000000 -1450.000000
      vertex -2425.000000 -2060.000000 -600.000000
      vertex -2095.000000 -2060.000000 -1450.000000
    endloop
  endfacet
  facet normal 0.000000 1.000000 -0.000000
    outer loop
      vertex -2095.000000 -2060.000000 -1450.000000
      vertex -2425.000000 -2060.000000 -600.000000
      vertex -2095.000000 -2060.000000 -600.000000
    endloop
  endfacet
endsolid Mesh
