solid Mesh
  facet normal -1.000000 -0.000000 0.000000
    outer loop
      vertex -165.000000 -4120.000000 0.000000
      vertex -165.000000 -4320.000000 -850.000000
      vertex -165.000000 -4320.000000 0.000000
    endloop
  endfacet
  facet normal -1.000000 0.000000 -0.000000
    outer loop
      vertex -165.000000 -4120.000000 0.000000
      vertex -165.000000 -4120.000000 -850.000000
      vertex -165.000000 -4320.000000 -850.000000
    endloop
  endfacet
  facet normal 0.000000 0.000000 -1.000000
    outer loop
      vertex -165.000000 -4120.000000 -850.000000
      vertex 165.000000 -4120.000000 -850.000000
      vertex -165.000000 -4320.000000 -850.000000
    endloop
  endfacet
  facet normal 0.000000 0.000000 -1.000000
    outer loop
      vertex -165.000000 -4320.000000 -850.000000
      vertex 165.000000 -4120.000000 -850.000000
      vertex 165.000000 -4320.000000 -850.000000
    endloop
  endfacet
  facet normal 1.000000 0.000000 -0.000000
    outer loop
      vertex 165.000000 -4120.000000 -850.000000
      vertex 165.000000 -4120.000000 0.000000
      vertex 165.000000 -4320.000000 -850.000000
    endloop
  endfacet
  facet normal 1.000000 0.000000 0.000000
    outer loop
      vertex 165.000000 -4320.000000 -850.000000
      vertex 165.000000 -4120.000000 0.000000
      vertex 165.000000 -4320.000000 0.000000
    endloop
  endfacet
  facet normal 0.000000 0.000000 -1.000000
    outer loop
      vertex 165.000000 -4120.000000 0.000000
      vertex 185.000000 -4120.000000 0.000000
      vertex 165.000000 -4320.000000 0.000000
    endloop
  endfacet
  facet normal 0.000000 0.000000 -1.000000
    outer loop
      vertex 165.000000 -4320.000000 0.000000
      vertex 185.000000 -4120.000000 0.000000
      vertex 185.000000 -4320.000000 0.000000
    endloop
  endfacet
  facet normal -1.000000 -0.000000 0.000000
    outer loop
      vertex 185.000000 -4120.000000 0.000000
      vertex 185.000000 -4320.000000 -220.000000
      vertex 185.000000 -4320.000000 0.000000
    endloop
  endfacet
  facet normal -1.000000 0.000000 -0.000000
    outer loop
      vertex 185.000000 -4120.000000 0.000000
      vertex 185.000000 -4120.000000 -220.000000
      vertex 185.000000 -4320.000000 -220.000000
    endloop
  endfacet
  facet normal 0.000000 0.000000 -1.000000
    outer loop
      vertex 185.000000 -4120.000000 -220.000000
      vertex 300.000000 -4120.000000 -220.000000
      vertex 185.000000 -4320.000000 -220.000000
    endloop
  endfacet
  facet normal 0.000000 0.000000 -1.000000
    outer loop
      vertex 185.000000 -4320.000000 -220.000000
      vertex 300.000000 -4120.000000 -220.000000
      vertex 300.000000 -4320.000000 -220.000000
    endloop
  endfacet
  facet normal 1.000000 0.000000 -0.000000
    outer loop
      vertex 300.000000 -4120.000000 -220.000000
      vertex 300.000000 -4120.000000 680.000000
      vertex 300.000000 -4320.000000 -220.000000
    endloop
  endfacet
  facet normal 1.000000 0.000000 0.000000
    outer loop
      vertex 300.000000 -4320.000000 -220.000000
      vertex 300.000000 -4120.000000 680.000000
      vertex 300.000000 -4320.000000 680.000000
    endloop
  endfacet
  facet normal 0.000000 0.000000 1.000000
    outer loop
      vertex 300.000000 -4120.000000 680.000000
      vertex 70.000000 -4120.000000 680.000000
      vertex 300.000000 -4320.000000 680.000000
    endloop
  endfacet
  facet normal 0.000000 0.000000 1.000000
    outer loop
      vertex 300.000000 -4320.000000 680.000000
      vertex 70.000000 -4120.000000 680.000000
      vertex 70.000000 -4320.000000 680.000000
    endloop
  endfacet
  facet normal 1.000000 0.000000 -0.000000
    outer loop
      vertex 70.000000 -4120.000000 680.000000
      vertex 70.000000 -4120.000000 730.000000
      vertex 70.000000 -4320.000000 680.000000
    endloop
  endfacet
  facet normal 1.000000 0.000000 0.000000
    outer loop
      vertex 70.000000 -4320.000000 680.000000
      vertex 70.000000 -4120.000000 730.000000
      vertex 70.000000 -4320.000000 730.000000
    endloop
  endfacet
  facet normal 0.000000 0.000000 -1.000000
    outer loop
      vertex 70.000000 -4320.000000 730.000000
      vertex 70.000000 -4120.000000 730.000000
      vertex 125.000000 -4320.000000 730.000000
    endloop
  endfacet
  facet normal 0.000000 0.000000 -1.000000
    outer loop
      vertex 70.000000 -4120.000000 730.000000
      vertex 125.000000 -4120.000000 730.000000
      vertex 125.000000 -4320.000000 730.000000
    endloop
  endfacet
  facet normal 1.000000 0.000000 -0.000000
    outer loop
      vertex 125.000000 -4120.000000 730.000000
      vertex 125.000000 -4120.000000 1010.000000
      vertex 125.000000 -4320.000000 730.000000
    endloop
  endfacet
  facet normal 1.000000 0.000000 0.000000
    outer loop
      vertex 125.000000 -4320.000000 730.000000
      vertex 125.000000 -4120.000000 1010.000000
      vertex 125.000000 -4320.000000 1010.000000
    endloop
  endfacet
  facet normal 0.000000 0.000000 1.000000
    outer loop
      vertex 125.000000 -4120.000000 1010.000000
      vertex -125.000000 -4120.000000 1010.000000
      vertex 125.000000 -4320.000000 1010.000000
    endloop
  endfacet
  facet normal 0.000000 0.000000 1.000000
    outer loop
      vertex 125.000000 -4320.000000 1010.000000
      vertex -125.000000 -4120.000000 1010.000000
      vertex -125.000000 -4320.000000 1010.000000
    endloop
  endfacet
  facet normal -1.000000 -0.000000 -0.000000
    outer loop
      vertex -125.000000 -4120.000000 1010.000000
      vertex -125.000000 -4120.000000 730.000000
      vertex -125.000000 -4320.000000 1010.000000
    endloop
  endfacet
  facet normal -1.000000 0.000000 0.000000
    outer loop
      vertex -125.000000 -4320.000000 1010.000000
      vertex -125.000000 -4120.000000 730.000000
      vertex -125.000000 -4320.000000 730.000000
    endloop
  endfacet
  facet normal 0.000000 0.000000 -1.000000
    outer loop
      vertex -125.000000 -4320.000000 730.000000
      vertex -125.000000 -4120.000000 730.000000
      vertex -70.000000 -4320.000000 730.000000
    endloop
  endfacet
  facet normal 0.000000 0.000000 -1.000000
    outer loop
      vertex -125.000000 -4120.000000 730.000000
      vertex -70.000000 -4120.000000 730.000000
      vertex -70.000000 -4320.000000 730.000000
    endloop
  endfacet
  facet normal -1.000000 -0.000000 -0.000000
    outer loop
      vertex -70.000000 -4120.000000 730.000000
      vertex -70.000000 -4120.000000 680.000000
      vertex -70.000000 -4320.000000 730.000000
    endloop
  endfacet
  facet normal -1.000000 0.000000 0.000000
    outer loop
      vertex -70.000000 -4320.000000 730.000000
      vertex -70.000000 -4120.000000 680.000000
      vertex -70.000000 -4320.000000 680.000000
    endloop
  endfacet
  facet normal 0.000000 0.000000 1.000000
    outer loop
      vertex -70.000000 -4120.000000 680.000000
      vertex -300.000000 -4120.000000 680.000000
      vertex -70.000000 -4320.000000 680.000000
    endloop
  endfacet
  facet normal 0.000000 0.000000 1.000000
    outer loop
      vertex -70.000000 -4320.000000 680.000000
      vertex -300.000000 -4120.000000 680.000000
      vertex -300.000000 -4320.000000 680.000000
    endloop
  endfacet
  facet normal -1.000000 -0.000000 -0.000000
    outer loop
      vertex -300.000000 -4120.000000 680.000000
      vertex -300.000000 -4120.000000 -220.000000
      vertex -300.000000 -4320.000000 680.000000
    endloop
  endfacet
  facet normal -1.000000 0.000000 0.000000
    outer loop
      vertex -300.000000 -4320.000000 680.000000
      vertex -300.000000 -4120.000000 -220.000000
      vertex -300.000000 -4320.000000 -220.000000
    endloop
  endfacet
  facet normal 0.000000 0.000000 -1.000000
    outer loop
      vertex -300.000000 -4120.000000 -220.000000
      vertex -185.000000 -4120.000000 -220.000000
      vertex -300.000000 -4320.000000 -220.000000
    endloop
  endfacet
  facet normal 0.000000 0.000000 -1.000000
    outer loop
      vertex -300.000000 -4320.000000 -220.000000
      vertex -185.000000 -4120.000000 -220.000000
      vertex -185.000000 -4320.000000 -220.000000
    endloop
  endfacet
  facet normal 1.000000 0.000000 -0.000000
    outer loop
      vertex -185.000000 -4120.000000 -220.000000
      vertex -185.000000 -4120.000000 0.000000
      vertex -185.000000 -4320.000000 -220.000000
    endloop
  endfacet
  facet normal 1.000000 0.000000 0.000000
    outer loop
      vertex -185.000000 -4320.000000 -220.000000
      vertex -185.000000 -4120.000000 0.000000
      vertex -185.000000 -4320.000000 0.000000
    endloop
  endfacet
  facet normal 0.000000 0.000000 -1.000000
    outer loop
      vertex -185.000000 -4120.000000 0.000000
      vertex -165.000000 -4120.000000 0.000000
      vertex -185.000000 -4320.000000 0.000000
    endloop
  endfacet
  facet normal 0.000000 0.000000 -1.000000
    outer loop
      vertex -185.000000 -4320.000000 0.000000
      vertex -165.000000 -4120.000000 0.000000
      vertex -165.000000 -4320.000000 0.000000
    endloop
  endfacet
  facet normal 0.000000 1.000000 0.000000
    outer loop
      vertex -185.000000 -4120.000000 0.000000
      vertex -185.000000 -4120.000000 -220.000000
      vertex -300.000000 -4120.000000 -220.000000
    endloop
  endfacet
  facet normal 0.000000 1.000000 0.000000
    outer loop
      vertex 185.000000 -4120.000000 0.000000
      vertex 300.000000 -4120.000000 -220.000000
      vertex 185.000000 -4120.000000 -220.000000
    endloop
  endfacet
  facet normal 0.000000 1.000000 0.000000
    outer loop
      vertex -300.000000 -4120.000000 680.000000
      vertex -185.000000 -4120.000000 0.000000
      vertex -300.000000 -4120.000000 -220.000000
    endloop
  endfacet
  facet normal 0.000000 1.000000 0.000000
    outer loop
      vertex -70.000000 -4120.000000 680.000000
      vertex -165.000000 -4120.000000 0.000000
      vertex -185.000000 -4120.000000 0.000000
    endloop
  endfacet
  facet normal 0.000000 1.000000 0.000000
    outer loop
      vertex -70.000000 -4120.000000 680.000000
      vertex -185.000000 -4120.000000 0.000000
      vertex -300.000000 -4120.000000 680.000000
    endloop
  endfacet
  facet normal 0.000000 1.000000 0.000000
    outer loop
      vertex 70.000000 -4120.000000 680.000000
      vertex 185.000000 -4120.000000 0.000000
      vertex 165.000000 -4120.000000 0.000000
    endloop
  endfacet
  facet normal 0.000000 1.000000 0.000000
    outer loop
      vertex 70.000000 -4120.000000 680.000000
      vertex 165.000000 -4120.000000 0.000000
      vertex -165.000000 -4120.000000 0.000000
    endloop
  endfacet
  facet normal 0.000000 1.000000 0.000000
    outer loop
      vertex 70.000000 -4120.000000 680.000000
      vertex -165.000000 -4120.000000 0.000000
      vertex -70.000000 -4120.000000 680.000000
    endloop
  endfacet
  facet normal 0.000000 1.000000 0.000000
    outer loop
      vertex 70.000000 -4120.000000 730.000000
      vertex -70.000000 -4120.000000 680.000000
      vertex -70.000000 -4120.000000 730.000000
    endloop
  endfacet
  facet normal 0.000000 1.000000 0.000000
    outer loop
      vertex 70.000000 -4120.000000 730.000000
      vertex 70.000000 -4120.000000 680.000000
      vertex -70.000000 -4120.000000 680.000000
    endloop
  endfacet
  facet normal 0.000000 1.000000 0.000000
    outer loop
      vertex -125.000000 -4120.000000 1010.000000
      vertex -70.000000 -4120.000000 730.000000
      vertex -125.000000 -4120.000000 730.000000
    endloop
  endfacet
  facet normal 0.000000 1.000000 0.000000
    outer loop
      vertex 300.000000 -4120.000000 680.000000
      vertex 300.000000 -4120.000000 -220.000000
      vertex 185.000000 -4120.000000 0.000000
    endloop
  endfacet
  facet normal 0.000000 1.000000 0.000000
    outer loop
      vertex 300.000000 -4120.000000 680.000000
      vertex 185.000000 -4120.000000 0.000000
      vertex 70.000000 -4120.000000 680.000000
    endloop
  endfacet
  facet normal 0.000000 1.000000 0.000000
    outer loop
      vertex 125.000000 -4120.000000 1010.000000
      vertex 125.000000 -4120.000000 730.000000
      vertex 70.000000 -4120.000000 730.000000
    endloop
  endfacet
  facet normal 0.000000 1.000000 0.000000
    outer loop
      vertex 125.000000 -4120.000000 1010.000000
      vertex 70.000000 -4120.000000 730.000000
      vertex -70.000000 -4120.000000 730.000000
    endloop
  endfacet
  facet normal 0.000000 1.000000 0.000000
    outer loop
      vertex 125.000000 -4120.000000 1010.000000
      vertex -70.000000 -4120.000000 730.000000
      vertex -125.000000 -4120.000000 1010.000000
    endloop
  endfacet
  facet normal 0.000000 1.000000 0.000000
    outer loop
      vertex 165.000000 -4120.000000 0.000000
      vertex 165.000000 -4120.000000 -850.000000
      vertex -165.000000 -4120.000000 -850.000000
    endloop
  endfacet
  facet normal 0.000000 1.000000 0.000000
    outer loop
      vertex 165.000000 -4120.000000 0.000000
      vertex -165.000000 -4120.000000 -850.000000
      vertex -165.000000 -4120.000000 0.000000
    endloop
  endfacet
  facet normal 0.000000 -1.000000 0.000000
    outer loop
      vertex -185.000000 -4320.000000 -220.000000
      vertex -185.000000 -4320.000000 0.000000
      vertex -300.000000 -4320.000000 -220.000000
    endloop
  endfacet
  facet normal 0.000000 -1.000000 0.000000
    outer loop
      vertex 300.000000 -4320.000000 -220.000000
      vertex 185.000000 -4320.000000 0.000000
      vertex 185.000000 -4320.000000 -220.000000
    endloop
  endfacet
  facet normal -0.000000 -1.000000 0.000000
    outer loop
      vertex -185.000000 -4320.000000 0.000000
      vertex -300.000000 -4320.000000 680.000000
      vertex -300.000000 -4320.000000 -220.000000
    endloop
  endfacet
  facet normal 0.000000 -1.000000 0.000000
    outer loop
      vertex -165.000000 -4320.000000 0.000000
      vertex -70.000000 -4320.000000 680.000000
      vertex -185.000000 -4320.000000 0.000000
    endloop
  endfacet
  facet normal 0.000000 -1.000000 0.000000
    outer loop
      vertex -185.000000 -4320.000000 0.000000
      vertex -70.000000 -4320.000000 680.000000
      vertex -300.000000 -4320.000000 680.000000
    endloop
  endfacet
  facet normal 0.000000 -1.000000 0.000000
    outer loop
      vertex 185.000000 -4320.000000 0.000000
      vertex 70.000000 -4320.000000 680.000000
      vertex 165.000000 -4320.000000 0.000000
    endloop
  endfacet
  facet normal 0.000000 -1.000000 0.000000
    outer loop
      vertex 165.000000 -4320.000000 0.000000
      vertex 70.000000 -4320.000000 680.000000
      vertex -165.000000 -4320.000000 0.000000
    endloop
  endfacet
  facet normal 0.000000 -1.000000 0.000000
    outer loop
      vertex -165.000000 -4320.000000 0.000000
      vertex 70.000000 -4320.000000 680.000000
      vertex -70.000000 -4320.000000 680.000000
    endloop
  endfacet
  facet normal 0.000000 -1.000000 0.000000
    outer loop
      vertex -70.000000 -4320.000000 680.000000
      vertex 70.000000 -4320.000000 730.000000
      vertex -70.000000 -4320.000000 730.000000
    endloop
  endfacet
  facet normal 0.000000 -1.000000 0.000000
    outer loop
      vertex 70.000000 -4320.000000 680.000000
      vertex 70.000000 -4320.000000 730.000000
      vertex -70.000000 -4320.000000 680.000000
    endloop
  endfacet
  facet normal 0.000000 -1.000000 0.000000
    outer loop
      vertex -70.000000 -4320.000000 730.000000
      vertex -125.000000 -4320.000000 1010.000000
      vertex -125.000000 -4320.000000 730.000000
    endloop
  endfacet
  facet normal 0.000000 -1.000000 0.000000
    outer loop
      vertex 300.000000 -4320.000000 -220.000000
      vertex 300.000000 -4320.000000 680.000000
      vertex 185.000000 -4320.000000 0.000000
    endloop
  endfacet
  facet normal 0.000000 -1.000000 0.000000
    outer loop
      vertex 185.000000 -4320.000000 0.000000
      vertex 300.000000 -4320.000000 680.000000
      vertex 70.000000 -4320.000000 680.000000
    endloop
  endfacet
  facet normal 0.000000 -1.000000 0.000000
    outer loop
      vertex 125.000000 -4320.000000 730.000000
      vertex 125.000000 -4320.000000 1010.000000
      vertex 70.000000 -4320.000000 730.000000
    endloop
  endfacet
  facet normal 0.000000 -1.000000 0.000000
    outer loop
      vertex 70.000000 -4320.000000 730.000000
      vertex 125.000000 -4320.000000 1010.000000
      vertex -70.000000 -4320.000000 730.000000
    endloop
  endfacet
  facet normal 0.000000 -1.000000 0.000000
    outer loop
      vertex -70.000000 -4320.000000 730.000000
      vertex 125.000000 -4320.000000 1010.000000
      vertex -125.000000 -4320.000000 1010.000000
    endloop
  endfacet
  facet normal 0.000000 -1.000000 0.000000
    outer loop
      vertex 165.000000 -4320.000000 -850.000000
      vertex 165.000000 -4320.000000 0.000000
      vertex -165.000000 -4320.000000 -850.000000
    endloop
  endfacet
  facet normal 0.000000 -1.000000 0.000000
    outer loop
      vertex -165.000000 -4320.000000 -850.000000
      vertex 165.000000 -4320.000000 0.000000
      vertex -165.000000 -4320.000000 0.000000
    endloop
  endfacet
endsolid Mesh
