solid Mesh
  facet normal -1.000000 0.000000 0.000000
    outer loop
      vertex -1555.000000 -1555.000000 -1555.000000
      vertex -1555.000000 1555.000000 1555.000000
      vertex -1555.000000 1555.000000 -1555.000000
    endloop
  endfacet
  facet normal -1.000000 0.000000 0.000000
    outer loop
      vertex -1555.000000 -1555.000000 -1555.000000
      vertex -1555.000000 -1555.000000 1555.000000
      vertex -1555.000000 1555.000000 1555.000000
    endloop
  endfacet
  facet normal 0.000000 -1.000000 0.000000
    outer loop
      vertex 1555.000000 -1555.000000 -1555.000000
      vertex -1555.000000 -1555.000000 1555.000000
      vertex -1555.000000 -1555.000000 -1555.000000
    endloop
  endfacet
  facet normal 0.000000 -1.000000 0.000000
    outer loop
      vertex 1555.000000 -1555.000000 -1555.000000
      vertex 1555.000000 -1555.000000 1555.000000
      vertex -1555.000000 -1555.000000 1555.000000
    endloop
  endfacet
  facet normal 0.000000 0.000000 1.000000
    outer loop
      vertex 1555.000000 -1555.000000 1555.000000
      vertex -1555.000000 1555.000000 1555.000000
      vertex -1555.000000 -1555.000000 1555.000000
    endloop
  endfacet
  facet normal 0.000000 0.000000 1.000000
    outer loop
      vertex 1555.000000 1555.000000 1555.000000
      vertex -1555.000000 1555.000000 1555.000000
      vertex 1555.000000 -1555.000000 1555.000000
    endloop
  endfacet
  facet normal 0.000000 1.000000 0.000000
    outer loop
      vertex -1555.000000 1555.000000 1555.000000
      vertex 1555.000000 1555.000000 -1555.000000
      vertex -1555.000000 1555.000000 -1555.000000
    endloop
  endfacet
  facet normal 0.000000 1.000000 0.000000
    outer loop
      vertex 1555.000000 1555.000000 1555.000000
      vertex 1555.000000 1555.000000 -1555.000000
      vertex -1555.000000 1555.000000 1555.000000
    endloop
  endfacet
  facet normal 0.000000 0.000000 -1.000000
    outer loop
      vertex -1555.000000 1555.000000 -1555.000000
      vertex 1555.000000 -1555.000000 -1555.000000
      vertex -1555.000000 -1555.000000 -1555.000000
    endloop
  endfacet
  facet normal 0.000000 0.000000 -1.000000
    outer loop
      vertex -1555.000000 1555.000000 -1555.000000
      vertex 1555.000000 1555.000000 -1555.000000
      vertex 1555.000000 -1555.000000 -1555.000000
    endloop
  endfacet
  facet normal 1.000000 0.000000 0.000000
    outer loop
      vertex 1555.000000 1555.000000 1555.000000
      vertex 1555.000000 -1555.000000 -1555.000000
      vertex 1555.000000 1555.000000 -1555.000000
    endloop
  endfacet
  facet normal 1.000000 -0.000000 0.000000
    outer loop
      vertex 1555.000000 -1555.000000 1555.000000
      vertex 1555.000000 -1555.000000 -1555.000000
      vertex 1555.000000 1555.000000 1555.000000
    endloop
  endfacet
  facet normal 1.000000 0.000000 0.000000
    outer loop
      vertex -1325.000000 1325.000000 1325.000000
      vertex -1325.000000 -1325.000000 -1325.000000
      vertex -1325.000000 1325.000000 -1325.000000
    endloop
  endfacet
  facet normal 1.000000 -0.000000 0.000000
    outer loop
      vertex -1325.000000 -1325.000000 1325.000000
      vertex -1325.000000 -1325.000000 -1325.000000
      vertex -1325.000000 1325.000000 1325.000000
    endloop
  endfacet
  facet normal 0.000000 1.000000 0.000000
    outer loop
      vertex -1325.000000 -1325.000000 1325.000000
      vertex 1325.000000 -1325.000000 -1325.000000
      vertex -1325.000000 -1325.000000 -1325.000000
    endloop
  endfacet
  facet normal 0.000000 1.000000 0.000000
    outer loop
      vertex 1325.000000 -1325.000000 1325.000000
      vertex 1325.000000 -1325.000000 -1325.000000
      vertex -1325.000000 -1325.000000 1325.000000
    endloop
  endfacet
  facet normal 0.000000 0.000000 -1.000000
    outer loop
      vertex -1325.000000 1325.000000 1325.000000
      vertex 1325.000000 -1325.000000 1325.000000
      vertex -1325.000000 -1325.000000 1325.000000
    endloop
  endfacet
  facet normal 0.000000 0.000000 -1.000000
    outer loop
      vertex -1325.000000 1325.000000 1325.000000
      vertex 1325.000000 1325.000000 1325.000000
      vertex 1325.000000 -1325.000000 1325.000000
    endloop
  endfacet
  facet normal 0.000000 -1.000000 0.000000
    outer loop
      vertex 1325.000000 1325.000000 -1325.000000
      vertex -1325.000000 1325.000000 1325.000000
      vertex -1325.000000 1325.000000 -1325.000000
    endloop
  endfacet
  facet normal 0.000000 -1.000000 0.000000
    outer loop
      vertex 1325.000000 1325.000000 -1325.000000
      vertex 1325.000000 1325.000000 1325.000000
      vertex -1325.000000 1325.000000 1325.000000
    endloop
  endfacet
  facet normal 0.000000 0.000000 1.000000
    outer loop
      vertex 1325.000000 -1325.000000 -1325.000000
      vertex -1325.000000 1325.000000 -1325.000000
      vertex -1325.000000 -1325.000000 -1325.000000
    endloop
  endfacet
  facet normal 0.000000 0.000000 1.000000
    outer loop
      vertex 1325.000000 1325.000000 -1325.000000
      vertex -1325.000000 1325.000000 -1325.000000
      vertex 1325.000000 -1325.000000 -1325.000000
    endloop
  endfacet
  facet normal -1.000000 0.000000 0.000000
    outer loop
      vertex 1325.000000 -1325.000000 -1325.000000
      vertex 1325.000000 1325.000000 1325.000000
      vertex 1325.000000 1325.000000 -1325.000000
    endloop
  endfacet
  facet normal -1.000000 0.000000 0.000000
    outer loop
      vertex 1325.000000 -1325.000000 -1325.000000
      vertex 1325.000000 -1325.000000 1325.000000
      vertex 1325.000000 1325.000000 1325.000000
    endloop
  endfacet
endsolid Mesh
