solid Mesh
  facet normal 1.000000 -0.000000 0.000000
    outer loop
      vertex 5465.000000 -5300.000000 -600.000000
      vertex 5465.000000 -5300.000000 -1450.000000
      vertex 5465.000000 -5000.000000 -600.000000
    endloop
  endfacet
  facet normal 1.000000 0.000000 0.000000
    outer loop
      vertex 5465.000000 -5000.000000 -600.000000
      vertex 5465.000000 -5300.000000 -1450.000000
      vertex 5465.000000 -5000.000000 -1450.000000
    endloop
  endfacet
  facet normal 0.000000 0.000000 -1.000000
    outer loop
      vertex 5465.000000 -5300.000000 -1450.000000
      vertex 5135.000000 -5300.000000 -1450.000000
      vertex 5465.000000 -5000.000000 -1450.000000
    endloop
  endfacet
  facet normal -0.000000 0.000000 -1.000000
    outer loop
      vertex 5465.000000 -5000.000000 -1450.000000
      vertex 5135.000000 -5300.000000 -1450.000000
      vertex 5135.000000 -5000.000000 -1450.000000
    endloop
  endfacet
  facet normal -1.000000 0.000000 0.000000
    outer loop
      vertex 5135.000000 -5300.000000 -1450.000000
      vertex 5135.000000 -5300.000000 -600.000000
      vertex 5135.000000 -5000.000000 -1450.000000
    endloop
  endfacet
  facet normal -1.000000 0.000000 0.000000
    outer loop
      vertex 5135.000000 -5000.000000 -1450.000000
      vertex 5135.000000 -5300.000000 -600.000000
      vertex 5135.000000 -5000.000000 -600.000000
    endloop
  endfacet
  facet normal 0.000000 0.000000 -1.000000
    outer loop
      vertex 5135.000000 -5300.000000 -600.000000
      vertex 5115.000000 -5300.000000 -600.000000
      vertex 5135.000000 -5000.000000 -600.000000
    endloop
  endfacet
  facet normal -0.000000 0.000000 -1.000000
    outer loop
      vertex 5135.000000 -5000.000000 -600.000000
      vertex 5115.000000 -5300.000000 -600.000000
      vertex 5115.000000 -5000.000000 -600.000000
    endloop
  endfacet
  facet normal 1.000000 -0.000000 0.000000
    outer loop
      vertex 5115.000000 -5300.000000 -600.000000
      vertex 5115.000000 -5300.000000 -820.000000
      vertex 5115.000000 -5000.000000 -600.000000
    endloop
  endfacet
  facet normal 1.000000 0.000000 0.000000
    outer loop
      vertex 5115.000000 -5000.000000 -600.000000
      vertex 5115.000000 -5300.000000 -820.000000
      vertex 5115.000000 -5000.000000 -820.000000
    endloop
  endfacet
  facet normal 0.000000 0.000000 -1.000000
    outer loop
      vertex 5115.000000 -5300.000000 -820.000000
      vertex 5000.000000 -5300.000000 -820.000000
      vertex 5115.000000 -5000.000000 -820.000000
    endloop
  endfacet
  facet normal -0.000000 0.000000 -1.000000
    outer loop
      vertex 5115.000000 -5000.000000 -820.000000
      vertex 5000.000000 -5300.000000 -820.000000
      vertex 5000.000000 -5000.000000 -820.000000
    endloop
  endfacet
  facet normal -1.000000 0.000000 0.000000
    outer loop
      vertex 5000.000000 -5300.000000 -820.000000
      vertex 5000.000000 -5300.000000 80.000000
      vertex 5000.000000 -5000.000000 -820.000000
    endloop
  endfacet
  facet normal -1.000000 0.000000 0.000000
    outer loop
      vertex 5000.000000 -5000.000000 -820.000000
      vertex 5000.000000 -5300.000000 80.000000
      vertex 5000.000000 -5000.000000 80.000000
    endloop
  endfacet
  facet normal 0.000000 0.000000 1.000000
    outer loop
      vertex 5000.000000 -5300.000000 80.000000
      vertex 5230.000000 -5300.000000 80.000000
      vertex 5000.000000 -5000.000000 80.000000
    endloop
  endfacet
  facet normal -0.000000 0.000000 1.000000
    outer loop
      vertex 5000.000000 -5000.000000 80.000000
      vertex 5230.000000 -5300.000000 80.000000
      vertex 5230.000000 -5000.000000 80.000000
    endloop
  endfacet
  facet normal -1.000000 0.000000 0.000000
    outer loop
      vertex 5230.000000 -5300.000000 80.000000
      vertex 5230.000000 -5300.000000 130.000000
      vertex 5230.000000 -5000.000000 80.000000
    endloop
  endfacet
  facet normal -1.000000 0.000000 0.000000
    outer loop
      vertex 5230.000000 -5000.000000 80.000000
      vertex 5230.000000 -5300.000000 130.000000
      vertex 5230.000000 -5000.000000 130.000000
    endloop
  endfacet
  facet normal 0.000000 0.000000 -1.000000
    outer loop
      vertex 5230.000000 -5300.000000 130.000000
      vertex 5175.000000 -5300.000000 130.000000
      vertex 5230.000000 -5000.000000 130.000000
    endloop
  endfacet
  facet normal -0.000000 0.000000 -1.000000
    outer loop
      vertex 5230.000000 -5000.000000 130.000000
      vertex 5175.000000 -5300.000000 130.000000
      vertex 5175.000000 -5000.000000 130.000000
    endloop
  endfacet
  facet normal -1.000000 0.000000 0.000000
    outer loop
      vertex 5175.000000 -5300.000000 130.000000
      vertex 5175.000000 -5300.000000 410.000000
      vertex 5175.000000 -5000.000000 130.000000
    endloop
  endfacet
  facet normal -1.000000 0.000000 0.000000
    outer loop
      vertex 5175.000000 -5000.000000 130.000000
      vertex 5175.000000 -5300.000000 410.000000
      vertex 5175.000000 -5000.000000 410.000000
    endloop
  endfacet
  facet normal -0.000000 0.000000 1.000000
    outer loop
      vertex 5175.000000 -5000.000000 410.000000
      vertex 5175.000000 -5300.000000 410.000000
      vertex 5425.000000 -5000.000000 410.000000
    endloop
  endfacet
  facet normal 0.000000 0.000000 1.000000
    outer loop
      vertex 5175.000000 -5300.000000 410.000000
      vertex 5425.000000 -5300.000000 410.000000
      vertex 5425.000000 -5000.000000 410.000000
    endloop
  endfacet
  facet normal 1.000000 -0.000000 0.000000
    outer loop
      vertex 5425.000000 -5300.000000 410.000000
      vertex 5425.000000 -5300.000000 130.000000
      vertex 5425.000000 -5000.000000 410.000000
    endloop
  endfacet
  facet normal 1.000000 0.000000 0.000000
    outer loop
      vertex 5425.000000 -5000.000000 410.000000
      vertex 5425.000000 -5300.000000 130.000000
      vertex 5425.000000 -5000.000000 130.000000
    endloop
  endfacet
  facet normal 0.000000 0.000000 -1.000000
    outer loop
      vertex 5425.000000 -5300.000000 130.000000
      vertex 5370.000000 -5300.000000 130.000000
      vertex 5425.000000 -5000.000000 130.000000
    endloop
  endfacet
  facet normal -0.000000 0.000000 -1.000000
    outer loop
      vertex 5425.000000 -5000.000000 130.000000
      vertex 5370.000000 -5300.000000 130.000000
      vertex 5370.000000 -5000.000000 130.000000
    endloop
  endfacet
  facet normal 1.000000 -0.000000 0.000000
    outer loop
      vertex 5370.000000 -5300.000000 130.000000
      vertex 5370.000000 -5300.000000 80.000000
      vertex 5370.000000 -5000.000000 130.000000
    endloop
  endfacet
  facet normal 1.000000 0.000000 0.000000
    outer loop
      vertex 5370.000000 -5000.000000 130.000000
      vertex 5370.000000 -5300.000000 80.000000
      vertex 5370.000000 -5000.000000 80.000000
    endloop
  endfacet
  facet normal 0.000000 0.000000 1.000000
    outer loop
      vertex 5370.000000 -5300.000000 80.000000
      vertex 5600.000000 -5300.000000 80.000000
      vertex 5370.000000 -5000.000000 80.000000
    endloop
  endfacet
  facet normal -0.000000 0.000000 1.000000
    outer loop
      vertex 5370.000000 -5000.000000 80.000000
      vertex 5600.000000 -5300.000000 80.000000
      vertex 5600.000000 -5000.000000 80.000000
    endloop
  endfacet
  facet normal 1.000000 -0.000000 0.000000
    outer loop
      vertex 5600.000000 -5300.000000 80.000000
      vertex 5600.000000 -5300.000000 -820.000000
      vertex 5600.000000 -5000.000000 80.000000
    endloop
  endfacet
  facet normal 1.000000 0.000000 0.000000
    outer loop
      vertex 5600.000000 -5000.000000 80.000000
      vertex 5600.000000 -5300.000000 -820.000000
      vertex 5600.000000 -5000.000000 -820.000000
    endloop
  endfacet
  facet normal 0.000000 0.000000 -1.000000
    outer loop
      vertex 5600.000000 -5300.000000 -820.000000
      vertex 5485.000000 -5300.000000 -820.000000
      vertex 5600.000000 -5000.000000 -820.000000
    endloop
  endfacet
  facet normal -0.000000 0.000000 -1.000000
    outer loop
      vertex 5600.000000 -5000.000000 -820.000000
      vertex 5485.000000 -5300.000000 -820.000000
      vertex 5485.000000 -5000.000000 -820.000000
    endloop
  endfacet
  facet normal -1.000000 0.000000 0.000000
    outer loop
      vertex 5485.000000 -5300.000000 -820.000000
      vertex 5485.000000 -5300.000000 -600.000000
      vertex 5485.000000 -5000.000000 -820.000000
    endloop
  endfacet
  facet normal -1.000000 0.000000 0.000000
    outer loop
      vertex 5485.000000 -5000.000000 -820.000000
      vertex 5485.000000 -5300.000000 -600.000000
      vertex 5485.000000 -5000.000000 -600.000000
    endloop
  endfacet
  facet normal 0.000000 0.000000 -1.000000
    outer loop
      vertex 5485.000000 -5300.000000 -600.000000
      vertex 5465.000000 -5300.000000 -600.000000
      vertex 5485.000000 -5000.000000 -600.000000
    endloop
  endfacet
  facet normal -0.000000 0.000000 -1.000000
    outer loop
      vertex 5485.000000 -5000.000000 -600.000000
      vertex 5465.000000 -5300.000000 -600.000000
      vertex 5465.000000 -5000.000000 -600.000000
    endloop
  endfacet
  facet normal 0.000000 -1.000000 0.000000
    outer loop
      vertex 5485.000000 -5300.000000 -600.000000
      vertex 5485.000000 -5300.000000 -820.000000
      vertex 5600.000000 -5300.000000 -820.000000
    endloop
  endfacet
  facet normal 0.000000 -1.000000 -0.000000
    outer loop
      vertex 5115.000000 -5300.000000 -600.000000
      vertex 5000.000000 -5300.000000 -820.000000
      vertex 5115.000000 -5300.000000 -820.000000
    endloop
  endfacet
  facet normal 0.000000 -1.000000 -0.000000
    outer loop
      vertex 5600.000000 -5300.000000 80.000000
      vertex 5485.000000 -5300.000000 -600.000000
      vertex 5600.000000 -5300.000000 -820.000000
    endloop
  endfacet
  facet normal 0.000000 -1.000000 0.000000
    outer loop
      vertex 5370.000000 -5300.000000 80.000000
      vertex 5465.000000 -5300.000000 -600.000000
      vertex 5485.000000 -5300.000000 -600.000000
    endloop
  endfacet
  facet normal 0.000000 -1.000000 0.000000
    outer loop
      vertex 5370.000000 -5300.000000 80.000000
      vertex 5485.000000 -5300.000000 -600.000000
      vertex 5600.000000 -5300.000000 80.000000
    endloop
  endfacet
  facet normal 0.000000 -1.000000 0.000000
    outer loop
      vertex 5230.000000 -5300.000000 80.000000
      vertex 5115.000000 -5300.000000 -600.000000
      vertex 5135.000000 -5300.000000 -600.000000
    endloop
  endfacet
  facet normal 0.000000 -1.000000 -0.000000
    outer loop
      vertex 5230.000000 -5300.000000 80.000000
      vertex 5135.000000 -5300.000000 -600.000000
      vertex 5465.000000 -5300.000000 -600.000000
    endloop
  endfacet
  facet normal 0.000000 -1.000000 0.000000
    outer loop
      vertex 5230.000000 -5300.000000 80.000000
      vertex 5465.000000 -5300.000000 -600.000000
      vertex 5370.000000 -5300.000000 80.000000
    endloop
  endfacet
  facet normal 0.000000 -1.000000 0.000000
    outer loop
      vertex 5230.000000 -5300.000000 130.000000
      vertex 5370.000000 -5300.000000 80.000000
      vertex 5370.000000 -5300.000000 130.000000
    endloop
  endfacet
  facet normal 0.000000 -1.000000 0.000000
    outer loop
      vertex 5230.000000 -5300.000000 130.000000
      vertex 5230.000000 -5300.000000 80.000000
      vertex 5370.000000 -5300.000000 80.000000
    endloop
  endfacet
  facet normal 0.000000 -1.000000 -0.000000
    outer loop
      vertex 5425.000000 -5300.000000 410.000000
      vertex 5370.000000 -5300.000000 130.000000
      vertex 5425.000000 -5300.000000 130.000000
    endloop
  endfacet
  facet normal 0.000000 -1.000000 0.000000
    outer loop
      vertex 5000.000000 -5300.000000 80.000000
      vertex 5000.000000 -5300.000000 -820.000000
      vertex 5115.000000 -5300.000000 -600.000000
    endloop
  endfacet
  facet normal 0.000000 -1.000000 0.000000
    outer loop
      vertex 5000.000000 -5300.000000 80.000000
      vertex 5115.000000 -5300.000000 -600.000000
      vertex 5230.000000 -5300.000000 80.000000
    endloop
  endfacet
  facet normal 0.000000 -1.000000 0.000000
    outer loop
      vertex 5175.000000 -5300.000000 410.000000
      vertex 5175.000000 -5300.000000 130.000000
      vertex 5230.000000 -5300.000000 130.000000
    endloop
  endfacet
  facet normal 0.000000 -1.000000 0.000000
    outer loop
      vertex 5175.000000 -5300.000000 410.000000
      vertex 5230.000000 -5300.000000 130.000000
      vertex 5370.000000 -5300.000000 130.000000
    endloop
  endfacet
  facet normal 0.000000 -1.000000 0.000000
    outer loop
      vertex 5175.000000 -5300.000000 410.000000
      vertex 5370.000000 -5300.000000 130.000000
      vertex 5425.000000 -5300.000000 410.000000
    endloop
  endfacet
  facet normal 0.000000 -1.000000 0.000000
    outer loop
      vertex 5135.000000 -5300.000000 -600.000000
      vertex 5135.000000 -5300.000000 -1450.000000
      vertex 5465.000000 -5300.000000 -600.000000
    endloop
  endfacet
  facet normal 0.000000 -1.000000 0.000000
    outer loop
      vertex 5465.000000 -5300.000000 -1450.000000
      vertex 5465.000000 -5300.000000 -600.000000
      vertex 5135.000000 -5300.000000 -1450.000000
    endloop
  endfacet
  facet normal 0.000000 1.000000 0.000000
    outer loop
      vertex 5485.000000 -5000.000000 -820.000000
      vertex 5485.000000 -5000.000000 -600.000000
      vertex 5600.000000 -5000.000000 -820.000000
    endloop
  endfacet
  facet normal 0.000000 1.000000 0.000000
    outer loop
      vertex 5000.000000 -5000.000000 -820.000000
      vertex 5115.000000 -5000.000000 -600.000000
      vertex 5115.000000 -5000.000000 -820.000000
    endloop
  endfacet
  facet normal -0.000000 1.000000 0.000000
    outer loop
      vertex 5485.000000 -5000.000000 -600.000000
      vertex 5600.000000 -5000.000000 80.000000
      vertex 5600.000000 -5000.000000 -820.000000
    endloop
  endfacet
  facet normal 0.000000 1.000000 -0.000000
    outer loop
      vertex 5465.000000 -5000.000000 -600.000000
      vertex 5370.000000 -5000.000000 80.000000
      vertex 5485.000000 -5000.000000 -600.000000
    endloop
  endfacet
  facet normal 0.000000 1.000000 -0.000000
    outer loop
      vertex 5485.000000 -5000.000000 -600.000000
      vertex 5370.000000 -5000.000000 80.000000
      vertex 5600.000000 -5000.000000 80.000000
    endloop
  endfacet
  facet normal 0.000000 1.000000 0.000000
    outer loop
      vertex 5135.000000 -5000.000000 -600.000000
      vertex 5370.000000 -5000.000000 80.000000
      vertex 5465.000000 -5000.000000 -600.000000
    endloop
  endfacet
  facet normal 0.000000 1.000000 0.000000
    outer loop
      vertex 5115.000000 -5000.000000 -600.000000
      vertex 5230.000000 -5000.000000 80.000000
      vertex 5135.000000 -5000.000000 -600.000000
    endloop
  endfacet
  facet normal 0.000000 1.000000 0.000000
    outer loop
      vertex 5135.000000 -5000.000000 -600.000000
      vertex 5230.000000 -5000.000000 80.000000
      vertex 5370.000000 -5000.000000 80.000000
    endloop
  endfacet
  facet normal 0.000000 1.000000 -0.000000
    outer loop
      vertex 5370.000000 -5000.000000 80.000000
      vertex 5230.000000 -5000.000000 130.000000
      vertex 5370.000000 -5000.000000 130.000000
    endloop
  endfacet
  facet normal 0.000000 1.000000 0.000000
    outer loop
      vertex 5230.000000 -5000.000000 80.000000
      vertex 5230.000000 -5000.000000 130.000000
      vertex 5370.000000 -5000.000000 80.000000
    endloop
  endfacet
  facet normal 0.000000 1.000000 0.000000
    outer loop
      vertex 5370.000000 -5000.000000 130.000000
      vertex 5425.000000 -5000.000000 410.000000
      vertex 5425.000000 -5000.000000 130.000000
    endloop
  endfacet
  facet normal 0.000000 1.000000 0.000000
    outer loop
      vertex 5000.000000 -5000.000000 -820.000000
      vertex 5000.000000 -5000.000000 80.000000
      vertex 5115.000000 -5000.000000 -600.000000
    endloop
  endfacet
  facet normal 0.000000 1.000000 -0.000000
    outer loop
      vertex 5115.000000 -5000.000000 -600.000000
      vertex 5000.000000 -5000.000000 80.000000
      vertex 5230.000000 -5000.000000 80.000000
    endloop
  endfacet
  facet normal 0.000000 1.000000 0.000000
    outer loop
      vertex 5175.000000 -5000.000000 130.000000
      vertex 5175.000000 -5000.000000 410.000000
      vertex 5230.000000 -5000.000000 130.000000
    endloop
  endfacet
  facet normal 0.000000 1.000000 -0.000000
    outer loop
      vertex 5230.000000 -5000.000000 130.000000
      vertex 5175.000000 -5000.000000 410.000000
      vertex 5370.000000 -5000.000000 130.000000
    endloop
  endfacet
  facet normal 0.000000 1.000000 -0.000000
    outer loop
      vertex 5370.000000 -5000.000000 130.000000
      vertex 5175.000000 -5000.000000 410.000000
      vertex 5425.000000 -5000.000000 410.000000
    endloop
  endfacet
  facet normal 0.000000 1.000000 0.000000
    outer loop
      vertex 5465.000000 -5000.000000 -600.000000
      vertex 5465.000000 -5000.000000 -1450.000000
      vertex 5135.000000 -5000.000000 -600.000000
    endloop
  endfacet
  facet normal 0.000000 1.000000 0.000000
    outer loop
      vertex 5135.000000 -5000.000000 -600.000000
      vertex 5465.000000 -5000.000000 -1450.000000
      vertex 5135.000000 -5000.000000 -1450.000000
    endloop
  endfacet
endsolid Mesh
