solid Mesh
  facet normal -1.000000 0.000000 0.000000
    outer loop
      vertex -250.000000 -250.000000 -250.000000
      vertex -250.000000 -250.000000 250.000000
      vertex -250.000000 250.000000 -250.000000
    endloop
  endfacet
  facet normal -1.000000 0.000000 0.000000
    outer loop
      vertex -250.000000 250.000000 -250.000000
      vertex -250.000000 -250.000000 250.000000
      vertex -250.000000 250.000000 250.000000
    endloop
  endfacet
  facet normal 0.000000 -1.000000 0.000000
    outer loop
      vertex 250.000000 -250.000000 -250.000000
      vertex 250.000000 -250.000000 250.000000
      vertex -250.000000 -250.000000 -250.000000
    endloop
  endfacet
  facet normal 0.000000 -1.000000 0.000000
    outer loop
      vertex -250.000000 -250.000000 -250.000000
      vertex 250.000000 -250.000000 250.000000
      vertex -250.000000 -250.000000 250.000000
    endloop
  endfacet
  facet normal 0.000000 0.000000 1.000000
    outer loop
      vertex 250.000000 250.000000 250.000000
      vertex -250.000000 250.000000 250.000000
      vertex -250.000000 -250.000000 250.000000
    endloop
  endfacet
  facet normal 0.000000 0.000000 1.000000
    outer loop
      vertex 250.000000 250.000000 250.000000
      vertex -250.000000 -250.000000 250.000000
      vertex 250.000000 -250.000000 250.000000
    endloop
  endfacet
  facet normal 0.000000 1.000000 0.000000
    outer loop
      vertex 250.000000 250.000000 250.000000
      vertex 250.000000 250.000000 -250.000000
      vertex -250.000000 250.000000 -250.000000
    endloop
  endfacet
  facet normal 0.000000 1.000000 0.000000
    outer loop
      vertex 250.000000 250.000000 250.000000
      vertex -250.000000 250.000000 -250.000000
      vertex -250.000000 250.000000 250.000000
    endloop
  endfacet
  facet normal 0.000000 0.000000 -1.000000
    outer loop
      vertex -250.000000 250.000000 -250.000000
      vertex 250.000000 250.000000 -250.000000
      vertex -250.000000 -250.000000 -250.000000
    endloop
  endfacet
  facet normal 0.000000 0.000000 -1.000000
    outer loop
      vertex -250.000000 -250.000000 -250.000000
      vertex 250.000000 250.000000 -250.000000
      vertex 250.000000 -250.000000 -250.000000
    endloop
  endfacet
  facet normal 1.000000 0.000000 0.000000
    outer loop
      vertex 250.000000 -250.000000 250.000000
      vertex 250.000000 -250.000000 -250.000000
      vertex 250.000000 250.000000 -250.000000
    endloop
  endfacet
  facet normal 1.000000 -0.000000 0.000000
    outer loop
      vertex 250.000000 -250.000000 250.000000
      vertex 250.000000 250.000000 -250.000000
      vertex 250.000000 250.000000 250.000000
    endloop
  endfacet
  facet normal 1.000000 0.000000 0.000000
    outer loop
      vertex -237.300003 -237.300003 237.300003
      vertex -237.300003 -237.300003 -237.300003
      vertex -237.300003 237.300003 -237.300003
    endloop
  endfacet
  facet normal 1.000000 -0.000000 0.000000
    outer loop
      vertex -237.300003 -237.300003 237.300003
      vertex -237.300003 237.300003 -237.300003
      vertex -237.300003 237.300003 237.300003
    endloop
  endfacet
  facet normal 0.000000 1.000000 0.000000
    outer loop
      vertex 237.300003 -237.300003 237.300003
      vertex 237.300003 -237.300003 -237.300003
      vertex -237.300003 -237.300003 -237.300003
    endloop
  endfacet
  facet normal 0.000000 1.000000 0.000000
    outer loop
      vertex 237.300003 -237.300003 237.300003
      vertex -237.300003 -237.300003 -237.300003
      vertex -237.300003 -237.300003 237.300003
    endloop
  endfacet
  facet normal 0.000000 0.000000 -1.000000
    outer loop
      vertex -237.300003 237.300003 237.300003
      vertex 237.300003 237.300003 237.300003
      vertex -237.300003 -237.300003 237.300003
    endloop
  endfacet
  facet normal 0.000000 0.000000 -1.000000
    outer loop
      vertex -237.300003 -237.300003 237.300003
      vertex 237.300003 237.300003 237.300003
      vertex 237.300003 -237.300003 237.300003
    endloop
  endfacet
  facet normal 0.000000 -1.000000 0.000000
    outer loop
      vertex 237.300003 237.300003 -237.300003
      vertex 237.300003 237.300003 237.300003
      vertex -237.300003 237.300003 -237.300003
    endloop
  endfacet
  facet normal 0.000000 -1.000000 0.000000
    outer loop
      vertex -237.300003 237.300003 -237.300003
      vertex 237.300003 237.300003 237.300003
      vertex -237.300003 237.300003 237.300003
    endloop
  endfacet
  facet normal 0.000000 0.000000 1.000000
    outer loop
      vertex 237.300003 237.300003 -237.300003
      vertex -237.300003 237.300003 -237.300003
      vertex -237.300003 -237.300003 -237.300003
    endloop
  endfacet
  facet normal 0.000000 0.000000 1.000000
    outer loop
      vertex 237.300003 237.300003 -237.300003
      vertex -237.300003 -237.300003 -237.300003
      vertex 237.300003 -237.300003 -237.300003
    endloop
  endfacet
  facet normal -1.000000 0.000000 0.000000
    outer loop
      vertex 237.300003 -237.300003 -237.300003
      vertex 237.300003 -237.300003 237.300003
      vertex 237.300003 237.300003 -237.300003
    endloop
  endfacet
  facet normal -1.000000 0.000000 0.000000
    outer loop
      vertex 237.300003 237.300003 -237.300003
      vertex 237.300003 -237.300003 237.300003
      vertex 237.300003 237.300003 237.300003
    endloop
  endfacet
endsolid Mesh
