solid Mesh
  facet normal -1.000000 -0.000000 -0.000000
    outer loop
      vertex 1835.000000 -4000.000000 -600.000000
      vertex 1835.000000 -4000.000000 -1450.000000
      vertex 1835.000000 -4300.000000 -600.000000
    endloop
  endfacet
  facet normal -1.000000 0.000000 0.000000
    outer loop
      vertex 1835.000000 -4300.000000 -600.000000
      vertex 1835.000000 -4000.000000 -1450.000000
      vertex 1835.000000 -4300.000000 -1450.000000
    endloop
  endfacet
  facet normal 0.000000 0.000000 -1.000000
    outer loop
      vertex 1835.000000 -4000.000000 -1450.000000
      vertex 2165.000000 -4000.000000 -1450.000000
      vertex 1835.000000 -4300.000000 -1450.000000
    endloop
  endfacet
  facet normal 0.000000 0.000000 -1.000000
    outer loop
      vertex 1835.000000 -4300.000000 -1450.000000
      vertex 2165.000000 -4000.000000 -1450.000000
      vertex 2165.000000 -4300.000000 -1450.000000
    endloop
  endfacet
  facet normal 1.000000 0.000000 -0.000000
    outer loop
      vertex 2165.000000 -4000.000000 -1450.000000
      vertex 2165.000000 -4000.000000 -600.000000
      vertex 2165.000000 -4300.000000 -1450.000000
    endloop
  endfacet
  facet normal 1.000000 0.000000 0.000000
    outer loop
      vertex 2165.000000 -4300.000000 -1450.000000
      vertex 2165.000000 -4000.000000 -600.000000
      vertex 2165.000000 -4300.000000 -600.000000
    endloop
  endfacet
  facet normal 0.000000 0.000000 -1.000000
    outer loop
      vertex 2165.000000 -4000.000000 -600.000000
      vertex 2185.000000 -4000.000000 -600.000000
      vertex 2165.000000 -4300.000000 -600.000000
    endloop
  endfacet
  facet normal 0.000000 0.000000 -1.000000
    outer loop
      vertex 2165.000000 -4300.000000 -600.000000
      vertex 2185.000000 -4000.000000 -600.000000
      vertex 2185.000000 -4300.000000 -600.000000
    endloop
  endfacet
  facet normal -1.000000 -0.000000 -0.000000
    outer loop
      vertex 2185.000000 -4000.000000 -600.000000
      vertex 2185.000000 -4000.000000 -820.000000
      vertex 2185.000000 -4300.000000 -600.000000
    endloop
  endfacet
  facet normal -1.000000 0.000000 0.000000
    outer loop
      vertex 2185.000000 -4300.000000 -600.000000
      vertex 2185.000000 -4000.000000 -820.000000
      vertex 2185.000000 -4300.000000 -820.000000
    endloop
  endfacet
  facet normal 0.000000 0.000000 -1.000000
    outer loop
      vertex 2185.000000 -4000.000000 -820.000000
      vertex 2300.000000 -4000.000000 -820.000000
      vertex 2185.000000 -4300.000000 -820.000000
    endloop
  endfacet
  facet normal 0.000000 0.000000 -1.000000
    outer loop
      vertex 2185.000000 -4300.000000 -820.000000
      vertex 2300.000000 -4000.000000 -820.000000
      vertex 2300.000000 -4300.000000 -820.000000
    endloop
  endfacet
  facet normal 1.000000 0.000000 -0.000000
    outer loop
      vertex 2300.000000 -4000.000000 -820.000000
      vertex 2300.000000 -4000.000000 80.000000
      vertex 2300.000000 -4300.000000 -820.000000
    endloop
  endfacet
  facet normal 1.000000 0.000000 0.000000
    outer loop
      vertex 2300.000000 -4300.000000 -820.000000
      vertex 2300.000000 -4000.000000 80.000000
      vertex 2300.000000 -4300.000000 80.000000
    endloop
  endfacet
  facet normal 0.000000 0.000000 1.000000
    outer loop
      vertex 2300.000000 -4000.000000 80.000000
      vertex 2070.000000 -4000.000000 80.000000
      vertex 2300.000000 -4300.000000 80.000000
    endloop
  endfacet
  facet normal 0.000000 0.000000 1.000000
    outer loop
      vertex 2300.000000 -4300.000000 80.000000
      vertex 2070.000000 -4000.000000 80.000000
      vertex 2070.000000 -4300.000000 80.000000
    endloop
  endfacet
  facet normal 1.000000 0.000000 -0.000000
    outer loop
      vertex 2070.000000 -4000.000000 80.000000
      vertex 2070.000000 -4000.000000 130.000000
      vertex 2070.000000 -4300.000000 80.000000
    endloop
  endfacet
  facet normal 1.000000 0.000000 0.000000
    outer loop
      vertex 2070.000000 -4300.000000 80.000000
      vertex 2070.000000 -4000.000000 130.000000
      vertex 2070.000000 -4300.000000 130.000000
    endloop
  endfacet
  facet normal 0.000000 0.000000 -1.000000
    outer loop
      vertex 2070.000000 -4000.000000 130.000000
      vertex 2125.000000 -4000.000000 130.000000
      vertex 2070.000000 -4300.000000 130.000000
    endloop
  endfacet
  facet normal 0.000000 0.000000 -1.000000
    outer loop
      vertex 2070.000000 -4300.000000 130.000000
      vertex 2125.000000 -4000.000000 130.000000
      vertex 2125.000000 -4300.000000 130.000000
    endloop
  endfacet
  facet normal 1.000000 0.000000 -0.000000
    outer loop
      vertex 2125.000000 -4000.000000 130.000000
      vertex 2125.000000 -4000.000000 410.000000
      vertex 2125.000000 -4300.000000 130.000000
    endloop
  endfacet
  facet normal 1.000000 0.000000 0.000000
    outer loop
      vertex 2125.000000 -4300.000000 130.000000
      vertex 2125.000000 -4000.000000 410.000000
      vertex 2125.000000 -4300.000000 410.000000
    endloop
  endfacet
  facet normal 0.000000 -0.000000 1.000000
    outer loop
      vertex 2125.000000 -4300.000000 410.000000
      vertex 2125.000000 -4000.000000 410.000000
      vertex 1875.000000 -4300.000000 410.000000
    endloop
  endfacet
  facet normal 0.000000 0.000000 1.000000
    outer loop
      vertex 2125.000000 -4000.000000 410.000000
      vertex 1875.000000 -4000.000000 410.000000
      vertex 1875.000000 -4300.000000 410.000000
    endloop
  endfacet
  facet normal -1.000000 -0.000000 -0.000000
    outer loop
      vertex 1875.000000 -4000.000000 410.000000
      vertex 1875.000000 -4000.000000 130.000000
      vertex 1875.000000 -4300.000000 410.000000
    endloop
  endfacet
  facet normal -1.000000 0.000000 0.000000
    outer loop
      vertex 1875.000000 -4300.000000 410.000000
      vertex 1875.000000 -4000.000000 130.000000
      vertex 1875.000000 -4300.000000 130.000000
    endloop
  endfacet
  facet normal 0.000000 0.000000 -1.000000
    outer loop
      vertex 1875.000000 -4000.000000 130.000000
      vertex 1930.000000 -4000.000000 130.000000
      vertex 1875.000000 -4300.000000 130.000000
    endloop
  endfacet
  facet normal 0.000000 0.000000 -1.000000
    outer loop
      vertex 1875.000000 -4300.000000 130.000000
      vertex 1930.000000 -4000.000000 130.000000
      vertex 1930.000000 -4300.000000 130.000000
    endloop
  endfacet
  facet normal -1.000000 -0.000000 -0.000000
    outer loop
      vertex 1930.000000 -4000.000000 130.000000
      vertex 1930.000000 -4000.000000 80.000000
      vertex 1930.000000 -4300.000000 130.000000
    endloop
  endfacet
  facet normal -1.000000 0.000000 0.000000
    outer loop
      vertex 1930.000000 -4300.000000 130.000000
      vertex 1930.000000 -4000.000000 80.000000
      vertex 1930.000000 -4300.000000 80.000000
    endloop
  endfacet
  facet normal 0.000000 0.000000 1.000000
    outer loop
      vertex 1930.000000 -4000.000000 80.000000
      vertex 1700.000000 -4000.000000 80.000000
      vertex 1930.000000 -4300.000000 80.000000
    endloop
  endfacet
  facet normal 0.000000 0.000000 1.000000
    outer loop
      vertex 1930.000000 -4300.000000 80.000000
      vertex 1700.000000 -4000.000000 80.000000
      vertex 1700.000000 -4300.000000 80.000000
    endloop
  endfacet
  facet normal -1.000000 -0.000000 -0.000000
    outer loop
      vertex 1700.000000 -4000.000000 80.000000
      vertex 1700.000000 -4000.000000 -820.000000
      vertex 1700.000000 -4300.000000 80.000000
    endloop
  endfacet
  facet normal -1.000000 0.000000 0.000000
    outer loop
      vertex 1700.000000 -4300.000000 80.000000
      vertex 1700.000000 -4000.000000 -820.000000
      vertex 1700.000000 -4300.000000 -820.000000
    endloop
  endfacet
  facet normal 0.000000 0.000000 -1.000000
    outer loop
      vertex 1700.000000 -4000.000000 -820.000000
      vertex 1815.000000 -4000.000000 -820.000000
      vertex 1700.000000 -4300.000000 -820.000000
    endloop
  endfacet
  facet normal 0.000000 0.000000 -1.000000
    outer loop
      vertex 1700.000000 -4300.000000 -820.000000
      vertex 1815.000000 -4000.000000 -820.000000
      vertex 1815.000000 -4300.000000 -820.000000
    endloop
  endfacet
  facet normal 1.000000 0.000000 -0.000000
    outer loop
      vertex 1815.000000 -4000.000000 -820.000000
      vertex 1815.000000 -4000.000000 -600.000000
      vertex 1815.000000 -4300.000000 -820.000000
    endloop
  endfacet
  facet normal 1.000000 0.000000 0.000000
    outer loop
      vertex 1815.000000 -4300.000000 -820.000000
      vertex 1815.000000 -4000.000000 -600.000000
      vertex 1815.000000 -4300.000000 -600.000000
    endloop
  endfacet
  facet normal 0.000000 0.000000 -1.000000
    outer loop
      vertex 1815.000000 -4000.000000 -600.000000
      vertex 1835.000000 -4000.000000 -600.000000
      vertex 1815.000000 -4300.000000 -600.000000
    endloop
  endfacet
  facet normal 0.000000 0.000000 -1.000000
    outer loop
      vertex 1815.000000 -4300.000000 -600.000000
      vertex 1835.000000 -4000.000000 -600.000000
      vertex 1835.000000 -4300.000000 -600.000000
    endloop
  endfacet
  facet normal 0.000000 1.000000 0.000000
    outer loop
      vertex 1815.000000 -4000.000000 -600.000000
      vertex 1815.000000 -4000.000000 -820.000000
      vertex 1700.000000 -4000.000000 -820.000000
    endloop
  endfacet
  facet normal 0.000000 1.000000 0.000000
    outer loop
      vertex 2185.000000 -4000.000000 -600.000000
      vertex 2300.000000 -4000.000000 -820.000000
      vertex 2185.000000 -4000.000000 -820.000000
    endloop
  endfacet
  facet normal 0.000000 1.000000 0.000000
    outer loop
      vertex 1700.000000 -4000.000000 80.000000
      vertex 1815.000000 -4000.000000 -600.000000
      vertex 1700.000000 -4000.000000 -820.000000
    endloop
  endfacet
  facet normal 0.000000 1.000000 0.000000
    outer loop
      vertex 1930.000000 -4000.000000 80.000000
      vertex 1835.000000 -4000.000000 -600.000000
      vertex 1815.000000 -4000.000000 -600.000000
    endloop
  endfacet
  facet normal 0.000000 1.000000 0.000000
    outer loop
      vertex 1930.000000 -4000.000000 80.000000
      vertex 1815.000000 -4000.000000 -600.000000
      vertex 1700.000000 -4000.000000 80.000000
    endloop
  endfacet
  facet normal 0.000000 1.000000 0.000000
    outer loop
      vertex 2070.000000 -4000.000000 80.000000
      vertex 2185.000000 -4000.000000 -600.000000
      vertex 2165.000000 -4000.000000 -600.000000
    endloop
  endfacet
  facet normal 0.000000 1.000000 0.000000
    outer loop
      vertex 2070.000000 -4000.000000 80.000000
      vertex 2165.000000 -4000.000000 -600.000000
      vertex 1835.000000 -4000.000000 -600.000000
    endloop
  endfacet
  facet normal 0.000000 1.000000 0.000000
    outer loop
      vertex 2070.000000 -4000.000000 80.000000
      vertex 1835.000000 -4000.000000 -600.000000
      vertex 1930.000000 -4000.000000 80.000000
    endloop
  endfacet
  facet normal 0.000000 1.000000 0.000000
    outer loop
      vertex 2070.000000 -4000.000000 130.000000
      vertex 1930.000000 -4000.000000 80.000000
      vertex 1930.000000 -4000.000000 130.000000
    endloop
  endfacet
  facet normal 0.000000 1.000000 0.000000
    outer loop
      vertex 2070.000000 -4000.000000 130.000000
      vertex 2070.000000 -4000.000000 80.000000
      vertex 1930.000000 -4000.000000 80.000000
    endloop
  endfacet
  facet normal 0.000000 1.000000 0.000000
    outer loop
      vertex 1875.000000 -4000.000000 410.000000
      vertex 1930.000000 -4000.000000 130.000000
      vertex 1875.000000 -4000.000000 130.000000
    endloop
  endfacet
  facet normal 0.000000 1.000000 0.000000
    outer loop
      vertex 2300.000000 -4000.000000 80.000000
      vertex 2300.000000 -4000.000000 -820.000000
      vertex 2185.000000 -4000.000000 -600.000000
    endloop
  endfacet
  facet normal 0.000000 1.000000 0.000000
    outer loop
      vertex 2300.000000 -4000.000000 80.000000
      vertex 2185.000000 -4000.000000 -600.000000
      vertex 2070.000000 -4000.000000 80.000000
    endloop
  endfacet
  facet normal 0.000000 1.000000 0.000000
    outer loop
      vertex 2125.000000 -4000.000000 410.000000
      vertex 2125.000000 -4000.000000 130.000000
      vertex 2070.000000 -4000.000000 130.000000
    endloop
  endfacet
  facet normal 0.000000 1.000000 0.000000
    outer loop
      vertex 2125.000000 -4000.000000 410.000000
      vertex 2070.000000 -4000.000000 130.000000
      vertex 1930.000000 -4000.000000 130.000000
    endloop
  endfacet
  facet normal 0.000000 1.000000 0.000000
    outer loop
      vertex 2125.000000 -4000.000000 410.000000
      vertex 1930.000000 -4000.000000 130.000000
      vertex 1875.000000 -4000.000000 410.000000
    endloop
  endfacet
  facet normal 0.000000 1.000000 0.000000
    outer loop
      vertex 2165.000000 -4000.000000 -600.000000
      vertex 2165.000000 -4000.000000 -1450.000000
      vertex 1835.000000 -4000.000000 -600.000000
    endloop
  endfacet
  facet normal 0.000000 1.000000 0.000000
    outer loop
      vertex 1835.000000 -4000.000000 -1450.000000
      vertex 1835.000000 -4000.000000 -600.000000
      vertex 2165.000000 -4000.000000 -1450.000000
    endloop
  endfacet
  facet normal 0.000000 -1.000000 0.000000
    outer loop
      vertex 1815.000000 -4300.000000 -820.000000
      vertex 1815.000000 -4300.000000 -600.000000
      vertex 1700.000000 -4300.000000 -820.000000
    endloop
  endfacet
  facet normal 0.000000 -1.000000 0.000000
    outer loop
      vertex 2300.000000 -4300.000000 -820.000000
      vertex 2185.000000 -4300.000000 -600.000000
      vertex 2185.000000 -4300.000000 -820.000000
    endloop
  endfacet
  facet normal -0.000000 -1.000000 0.000000
    outer loop
      vertex 1815.000000 -4300.000000 -600.000000
      vertex 1700.000000 -4300.000000 80.000000
      vertex 1700.000000 -4300.000000 -820.000000
    endloop
  endfacet
  facet normal 0.000000 -1.000000 0.000000
    outer loop
      vertex 1835.000000 -4300.000000 -600.000000
      vertex 1930.000000 -4300.000000 80.000000
      vertex 1815.000000 -4300.000000 -600.000000
    endloop
  endfacet
  facet normal 0.000000 -1.000000 0.000000
    outer loop
      vertex 1815.000000 -4300.000000 -600.000000
      vertex 1930.000000 -4300.000000 80.000000
      vertex 1700.000000 -4300.000000 80.000000
    endloop
  endfacet
  facet normal 0.000000 -1.000000 0.000000
    outer loop
      vertex 2165.000000 -4300.000000 -600.000000
      vertex 1930.000000 -4300.000000 80.000000
      vertex 1835.000000 -4300.000000 -600.000000
    endloop
  endfacet
  facet normal 0.000000 -1.000000 0.000000
    outer loop
      vertex 2185.000000 -4300.000000 -600.000000
      vertex 2070.000000 -4300.000000 80.000000
      vertex 2165.000000 -4300.000000 -600.000000
    endloop
  endfacet
  facet normal 0.000000 -1.000000 0.000000
    outer loop
      vertex 2165.000000 -4300.000000 -600.000000
      vertex 2070.000000 -4300.000000 80.000000
      vertex 1930.000000 -4300.000000 80.000000
    endloop
  endfacet
  facet normal 0.000000 -1.000000 0.000000
    outer loop
      vertex 1930.000000 -4300.000000 80.000000
      vertex 2070.000000 -4300.000000 130.000000
      vertex 1930.000000 -4300.000000 130.000000
    endloop
  endfacet
  facet normal 0.000000 -1.000000 0.000000
    outer loop
      vertex 2070.000000 -4300.000000 80.000000
      vertex 2070.000000 -4300.000000 130.000000
      vertex 1930.000000 -4300.000000 80.000000
    endloop
  endfacet
  facet normal 0.000000 -1.000000 0.000000
    outer loop
      vertex 1930.000000 -4300.000000 130.000000
      vertex 1875.000000 -4300.000000 410.000000
      vertex 1875.000000 -4300.000000 130.000000
    endloop
  endfacet
  facet normal 0.000000 -1.000000 0.000000
    outer loop
      vertex 2300.000000 -4300.000000 -820.000000
      vertex 2300.000000 -4300.000000 80.000000
      vertex 2185.000000 -4300.000000 -600.000000
    endloop
  endfacet
  facet normal 0.000000 -1.000000 0.000000
    outer loop
      vertex 2185.000000 -4300.000000 -600.000000
      vertex 2300.000000 -4300.000000 80.000000
      vertex 2070.000000 -4300.000000 80.000000
    endloop
  endfacet
  facet normal 0.000000 -1.000000 0.000000
    outer loop
      vertex 2125.000000 -4300.000000 130.000000
      vertex 2125.000000 -4300.000000 410.000000
      vertex 2070.000000 -4300.000000 130.000000
    endloop
  endfacet
  facet normal 0.000000 -1.000000 0.000000
    outer loop
      vertex 2070.000000 -4300.000000 130.000000
      vertex 2125.000000 -4300.000000 410.000000
      vertex 1930.000000 -4300.000000 130.000000
    endloop
  endfacet
  facet normal 0.000000 -1.000000 0.000000
    outer loop
      vertex 1930.000000 -4300.000000 130.000000
      vertex 2125.000000 -4300.000000 410.000000
      vertex 1875.000000 -4300.000000 410.000000
    endloop
  endfacet
  facet normal 0.000000 -1.000000 0.000000
    outer loop
      vertex 1835.000000 -4300.000000 -600.000000
      vertex 1835.000000 -4300.000000 -1450.000000
      vertex 2165.000000 -4300.000000 -600.000000
    endloop
  endfacet
  facet normal 0.000000 -1.000000 -0.000000
    outer loop
      vertex 2165.000000 -4300.000000 -600.000000
      vertex 1835.000000 -4300.000000 -1450.000000
      vertex 2165.000000 -4300.000000 -1450.000000
    endloop
  endfacet
endsolid Mesh
